<svg width="219" height="38" viewBox="0 0 219 38" fill="none" xmlns="http://www.w3.org/2000/svg">
<g clip-path="url(#clip0_1_1921)">
<path d="M19.6429 17.375H18.4643V13.7188C18.4643 9.46328 15.1152 6 11 6C6.88482 6 3.53571 9.46328 3.53571 13.7188V17.375H2.35714C1.0558 17.375 0 18.4668 0 19.8125V29.5625C0 30.9082 1.0558 32 2.35714 32H19.6429C20.9442 32 22 30.9082 22 29.5625V19.8125C22 18.4668 20.9442 17.375 19.6429 17.375ZM14.5357 17.375H7.46429V13.7188C7.46429 11.7027 9.05045 10.0625 11 10.0625C12.9496 10.0625 14.5357 11.7027 14.5357 13.7188V17.375Z" fill="#F4F4F4"/>
</g>
<path d="M51.767 12.8636V24.5H49.6591V14.9148H49.5909L46.8693 16.6534V14.7216L49.7614 12.8636H51.767ZM59.0227 24.7216C58.0871 24.7216 57.2841 24.4848 56.6136 24.0114C55.947 23.5341 55.4337 22.8466 55.0739 21.9489C54.7178 21.0473 54.5398 19.9621 54.5398 18.6932C54.5436 17.4242 54.7235 16.3447 55.0795 15.4545C55.4394 14.5606 55.9527 13.8788 56.6193 13.4091C57.2898 12.9394 58.0909 12.7045 59.0227 12.7045C59.9545 12.7045 60.7557 12.9394 61.4261 13.4091C62.0966 13.8788 62.6098 14.5606 62.9659 15.4545C63.3258 16.3485 63.5057 17.428 63.5057 18.6932C63.5057 19.9659 63.3258 21.053 62.9659 21.9545C62.6098 22.8523 62.0966 23.5379 61.4261 24.0114C60.7595 24.4848 59.9583 24.7216 59.0227 24.7216ZM59.0227 22.9432C59.75 22.9432 60.3239 22.5852 60.7443 21.8693C61.1686 21.1496 61.3807 20.0909 61.3807 18.6932C61.3807 17.7689 61.2841 16.9924 61.0909 16.3636C60.8977 15.7348 60.625 15.2614 60.2727 14.9432C59.9205 14.6212 59.5038 14.4602 59.0227 14.4602C58.2992 14.4602 57.7273 14.8201 57.3068 15.5398C56.8864 16.2557 56.6742 17.3068 56.6705 18.6932C56.6667 19.6212 56.7595 20.4015 56.9489 21.0341C57.142 21.6667 57.4148 22.1439 57.767 22.4659C58.1193 22.7841 58.5379 22.9432 59.0227 22.9432ZM69.6946 24.7216C68.759 24.7216 67.956 24.4848 67.2855 24.0114C66.6188 23.5341 66.1056 22.8466 65.7457 21.9489C65.3897 21.0473 65.2116 19.9621 65.2116 18.6932C65.2154 17.4242 65.3954 16.3447 65.7514 15.4545C66.1113 14.5606 66.6245 13.8788 67.2912 13.4091C67.9616 12.9394 68.7628 12.7045 69.6946 12.7045C70.6264 12.7045 71.4276 12.9394 72.098 13.4091C72.7685 13.8788 73.2817 14.5606 73.6378 15.4545C73.9976 16.3485 74.1776 17.428 74.1776 18.6932C74.1776 19.9659 73.9976 21.053 73.6378 21.9545C73.2817 22.8523 72.7685 23.5379 72.098 24.0114C71.4313 24.4848 70.6302 24.7216 69.6946 24.7216ZM69.6946 22.9432C70.4219 22.9432 70.9957 22.5852 71.4162 21.8693C71.8404 21.1496 72.0526 20.0909 72.0526 18.6932C72.0526 17.7689 71.956 16.9924 71.7628 16.3636C71.5696 15.7348 71.2969 15.2614 70.9446 14.9432C70.5923 14.6212 70.1757 14.4602 69.6946 14.4602C68.9711 14.4602 68.3991 14.8201 67.9787 15.5398C67.5582 16.2557 67.3461 17.3068 67.3423 18.6932C67.3385 19.6212 67.4313 20.4015 67.6207 21.0341C67.8139 21.6667 68.0866 22.1439 68.4389 22.4659C68.7912 22.7841 69.2098 22.9432 69.6946 22.9432ZM82.2869 22.3182V21.7045C82.2869 21.2538 82.3816 20.839 82.571 20.4602C82.7642 20.0814 83.0445 19.7765 83.4119 19.5455C83.7794 19.3144 84.2244 19.1989 84.7472 19.1989C85.285 19.1989 85.7358 19.3144 86.0994 19.5455C86.4631 19.7727 86.7377 20.0758 86.9233 20.4545C87.1127 20.8333 87.2074 21.25 87.2074 21.7045V22.3182C87.2074 22.7689 87.1127 23.1837 86.9233 23.5625C86.7339 23.9413 86.4555 24.2462 86.0881 24.4773C85.7244 24.7083 85.2775 24.8239 84.7472 24.8239C84.2169 24.8239 83.768 24.7083 83.4006 24.4773C83.0331 24.2462 82.7547 23.9413 82.5653 23.5625C82.3797 23.1837 82.2869 22.7689 82.2869 22.3182ZM83.7699 21.7045V22.3182C83.7699 22.6174 83.8419 22.892 83.9858 23.142C84.1297 23.392 84.3835 23.517 84.7472 23.517C85.1146 23.517 85.3665 23.3939 85.5028 23.1477C85.643 22.8977 85.7131 22.6212 85.7131 22.3182V21.7045C85.7131 21.4015 85.6468 21.125 85.5142 20.875C85.3816 20.6212 85.1259 20.4943 84.7472 20.4943C84.3911 20.4943 84.1392 20.6212 83.9915 20.875C83.8438 21.125 83.7699 21.4015 83.7699 21.7045ZM76.3722 15.6591V15.0455C76.3722 14.5909 76.4688 14.1742 76.6619 13.7955C76.8551 13.4167 77.1354 13.1136 77.5028 12.8864C77.8703 12.6553 78.3153 12.5398 78.8381 12.5398C79.3722 12.5398 79.821 12.6553 80.1847 12.8864C80.5521 13.1136 80.8286 13.4167 81.0142 13.7955C81.1998 14.1742 81.2926 14.5909 81.2926 15.0455V15.6591C81.2926 16.1136 81.1979 16.5303 81.0085 16.9091C80.8229 17.2841 80.5464 17.5852 80.179 17.8125C79.8116 18.0398 79.3646 18.1534 78.8381 18.1534C78.304 18.1534 77.8532 18.0398 77.4858 17.8125C77.1222 17.5852 76.8456 17.2822 76.6562 16.9034C76.4669 16.5246 76.3722 16.1098 76.3722 15.6591ZM77.8665 15.0455V15.6591C77.8665 15.9621 77.9366 16.2386 78.0767 16.4886C78.2206 16.7348 78.4744 16.858 78.8381 16.858C79.2017 16.858 79.4517 16.7348 79.5881 16.4886C79.7282 16.2386 79.7983 15.9621 79.7983 15.6591V15.0455C79.7983 14.7424 79.732 14.4659 79.5994 14.2159C79.4669 13.9621 79.2131 13.8352 78.8381 13.8352C78.4782 13.8352 78.2263 13.9621 78.0824 14.2159C77.9384 14.4697 77.8665 14.7462 77.8665 15.0455ZM77.0199 24.5L85.0199 12.8636H86.4403L78.4403 24.5H77.0199ZM99.9716 16.0625C99.9186 15.5663 99.6951 15.1799 99.3011 14.9034C98.911 14.6269 98.4034 14.4886 97.7784 14.4886C97.339 14.4886 96.9621 14.5549 96.6477 14.6875C96.3333 14.8201 96.0928 15 95.9261 15.2273C95.7595 15.4545 95.6742 15.714 95.6705 16.0057C95.6705 16.2481 95.7254 16.4583 95.8352 16.6364C95.9489 16.8144 96.1023 16.9659 96.2955 17.0909C96.4886 17.2121 96.7027 17.3144 96.9375 17.3977C97.1723 17.4811 97.4091 17.5511 97.6477 17.608L98.7386 17.8807C99.178 17.983 99.6004 18.1212 100.006 18.2955C100.415 18.4697 100.78 18.6894 101.102 18.9545C101.428 19.2197 101.686 19.5398 101.875 19.9148C102.064 20.2898 102.159 20.7292 102.159 21.233C102.159 21.9148 101.985 22.5152 101.636 23.0341C101.288 23.5492 100.784 23.9527 100.125 24.2443C99.4697 24.5322 98.6761 24.6761 97.7443 24.6761C96.839 24.6761 96.053 24.536 95.3864 24.2557C94.7235 23.9754 94.2045 23.5663 93.8295 23.0284C93.4583 22.4905 93.2576 21.8352 93.2273 21.0625H95.3011C95.3314 21.4678 95.4564 21.8049 95.6761 22.0739C95.8958 22.3428 96.1818 22.5436 96.5341 22.6761C96.8902 22.8087 97.2879 22.875 97.7273 22.875C98.1856 22.875 98.5871 22.8068 98.9318 22.6705C99.2803 22.5303 99.553 22.3371 99.75 22.0909C99.947 21.8409 100.047 21.5492 100.051 21.2159C100.047 20.9129 99.9583 20.6629 99.7841 20.4659C99.6098 20.2652 99.3655 20.0985 99.0511 19.9659C98.7405 19.8295 98.3769 19.7083 97.9602 19.6023L96.6364 19.2614C95.678 19.0152 94.9205 18.642 94.3636 18.142C93.8106 17.6383 93.5341 16.9697 93.5341 16.1364C93.5341 15.4508 93.7197 14.8504 94.0909 14.3352C94.4659 13.8201 94.9754 13.4205 95.6193 13.1364C96.2633 12.8485 96.9924 12.7045 97.8068 12.7045C98.6326 12.7045 99.3561 12.8485 99.9773 13.1364C100.602 13.4205 101.093 13.8163 101.449 14.3239C101.805 14.8277 101.989 15.4072 102 16.0625H99.9716ZM106.459 24.6761C105.906 24.6761 105.408 24.5777 104.964 24.3807C104.525 24.1799 104.177 23.8845 103.919 23.4943C103.665 23.1042 103.538 22.6231 103.538 22.0511C103.538 21.5587 103.629 21.1515 103.811 20.8295C103.993 20.5076 104.241 20.25 104.555 20.0568C104.87 19.8636 105.224 19.7178 105.618 19.6193C106.016 19.517 106.427 19.4432 106.851 19.3977C107.362 19.3447 107.777 19.2973 108.095 19.2557C108.413 19.2102 108.644 19.142 108.788 19.0511C108.936 18.9564 109.01 18.8106 109.01 18.6136V18.5795C109.01 18.1515 108.883 17.8201 108.629 17.5852C108.375 17.3504 108.01 17.233 107.533 17.233C107.029 17.233 106.629 17.3428 106.334 17.5625C106.042 17.7822 105.845 18.0417 105.743 18.3409L103.822 18.0682C103.974 17.5379 104.224 17.0947 104.572 16.7386C104.921 16.3788 105.347 16.1098 105.851 15.9318C106.355 15.75 106.911 15.6591 107.521 15.6591C107.942 15.6591 108.36 15.7083 108.777 15.8068C109.194 15.9053 109.574 16.0682 109.919 16.2955C110.264 16.5189 110.54 16.8239 110.749 17.2102C110.961 17.5966 111.067 18.0795 111.067 18.6591V24.5H109.089V23.3011H109.021C108.896 23.5436 108.72 23.7708 108.493 23.983C108.269 24.1913 107.987 24.3598 107.646 24.4886C107.309 24.6136 106.913 24.6761 106.459 24.6761ZM106.993 23.1648C107.406 23.1648 107.764 23.0833 108.067 22.9205C108.37 22.7538 108.603 22.5341 108.766 22.2614C108.932 21.9886 109.016 21.6913 109.016 21.3693V20.3409C108.951 20.3939 108.841 20.4432 108.686 20.4886C108.535 20.5341 108.364 20.5739 108.175 20.608C107.985 20.642 107.798 20.6723 107.612 20.6989C107.427 20.7254 107.266 20.7481 107.129 20.767C106.822 20.8087 106.548 20.8769 106.305 20.9716C106.063 21.0663 105.872 21.1989 105.732 21.3693C105.591 21.536 105.521 21.7519 105.521 22.017C105.521 22.3958 105.66 22.6818 105.936 22.875C106.213 23.0682 106.565 23.1648 106.993 23.1648ZM117.555 15.7727V17.3636H112.396V15.7727H117.555ZM113.686 24.5V14.9489C113.686 14.3617 113.807 13.8731 114.05 13.483C114.296 13.0928 114.625 12.8011 115.038 12.608C115.451 12.4148 115.91 12.3182 116.413 12.3182C116.769 12.3182 117.086 12.3466 117.362 12.4034C117.639 12.4602 117.843 12.5114 117.976 12.5568L117.567 14.1477C117.48 14.1212 117.37 14.0947 117.237 14.0682C117.105 14.0379 116.957 14.0227 116.794 14.0227C116.411 14.0227 116.141 14.1155 115.982 14.3011C115.826 14.483 115.749 14.7443 115.749 15.0852V24.5H113.686ZM122.702 24.6705C121.827 24.6705 121.071 24.4886 120.435 24.125C119.802 23.7576 119.315 23.2386 118.974 22.5682C118.634 21.8939 118.463 21.1004 118.463 20.1875C118.463 19.2898 118.634 18.5019 118.974 17.8239C119.319 17.142 119.8 16.6117 120.418 16.233C121.035 15.8504 121.76 15.6591 122.594 15.6591C123.132 15.6591 123.639 15.7462 124.116 15.9205C124.598 16.0909 125.022 16.3561 125.389 16.7159C125.76 17.0758 126.052 17.5341 126.264 18.0909C126.476 18.6439 126.582 19.303 126.582 20.0682V20.6989H119.429V19.3125H124.611C124.607 18.9186 124.522 18.5682 124.355 18.2614C124.188 17.9508 123.955 17.7064 123.656 17.5284C123.361 17.3504 123.016 17.2614 122.622 17.2614C122.202 17.2614 121.832 17.3636 121.514 17.5682C121.196 17.7689 120.948 18.0341 120.77 18.3636C120.596 18.6894 120.507 19.0473 120.503 19.4375V20.6477C120.503 21.1553 120.596 21.5909 120.781 21.9545C120.967 22.3144 121.226 22.5909 121.56 22.7841C121.893 22.9735 122.283 23.0682 122.73 23.0682C123.029 23.0682 123.3 23.0265 123.543 22.9432C123.785 22.8561 123.995 22.7292 124.173 22.5625C124.351 22.3958 124.486 22.1894 124.577 21.9432L126.497 22.1591C126.376 22.6667 126.145 23.1098 125.804 23.4886C125.467 23.8636 125.035 24.1553 124.509 24.3636C123.982 24.5682 123.38 24.6705 122.702 24.6705ZM134.803 24.6761C134.25 24.6761 133.751 24.5777 133.308 24.3807C132.869 24.1799 132.52 23.8845 132.263 23.4943C132.009 23.1042 131.882 22.6231 131.882 22.0511C131.882 21.5587 131.973 21.1515 132.155 20.8295C132.337 20.5076 132.585 20.25 132.899 20.0568C133.214 19.8636 133.568 19.7178 133.962 19.6193C134.359 19.517 134.77 19.4432 135.195 19.3977C135.706 19.3447 136.121 19.2973 136.439 19.2557C136.757 19.2102 136.988 19.142 137.132 19.0511C137.28 18.9564 137.354 18.8106 137.354 18.6136V18.5795C137.354 18.1515 137.227 17.8201 136.973 17.5852C136.719 17.3504 136.354 17.233 135.876 17.233C135.373 17.233 134.973 17.3428 134.678 17.5625C134.386 17.7822 134.189 18.0417 134.087 18.3409L132.166 18.0682C132.318 17.5379 132.568 17.0947 132.916 16.7386C133.265 16.3788 133.691 16.1098 134.195 15.9318C134.698 15.75 135.255 15.6591 135.865 15.6591C136.286 15.6591 136.704 15.7083 137.121 15.8068C137.537 15.9053 137.918 16.0682 138.263 16.2955C138.607 16.5189 138.884 16.8239 139.092 17.2102C139.304 17.5966 139.411 18.0795 139.411 18.6591V24.5H137.433V23.3011H137.365C137.24 23.5436 137.064 23.7708 136.837 23.983C136.613 24.1913 136.331 24.3598 135.99 24.4886C135.653 24.6136 135.257 24.6761 134.803 24.6761ZM135.337 23.1648C135.75 23.1648 136.107 23.0833 136.411 22.9205C136.714 22.7538 136.946 22.5341 137.109 22.2614C137.276 21.9886 137.359 21.6913 137.359 21.3693V20.3409C137.295 20.3939 137.185 20.4432 137.03 20.4886C136.878 20.5341 136.708 20.5739 136.518 20.608C136.329 20.642 136.142 20.6723 135.956 20.6989C135.77 20.7254 135.609 20.7481 135.473 20.767C135.166 20.8087 134.892 20.8769 134.649 20.9716C134.407 21.0663 134.215 21.1989 134.075 21.3693C133.935 21.536 133.865 21.7519 133.865 22.017C133.865 22.3958 134.003 22.6818 134.28 22.875C134.556 23.0682 134.909 23.1648 135.337 23.1648ZM143.536 19.3864V24.5H141.479V15.7727H143.445V17.2557H143.547C143.748 16.767 144.068 16.3788 144.507 16.0909C144.95 15.803 145.498 15.6591 146.149 15.6591C146.751 15.6591 147.276 15.7879 147.723 16.0455C148.174 16.303 148.522 16.6761 148.768 17.1648C149.018 17.6534 149.142 18.2462 149.138 18.9432V24.5H147.081V19.2614C147.081 18.678 146.929 18.2216 146.626 17.892C146.327 17.5625 145.912 17.3977 145.382 17.3977C145.022 17.3977 144.702 17.4773 144.422 17.6364C144.145 17.7917 143.928 18.017 143.768 18.3125C143.613 18.608 143.536 18.9659 143.536 19.3864ZM154.467 24.6534C153.782 24.6534 153.168 24.4773 152.626 24.125C152.085 23.7727 151.657 23.2614 151.342 22.5909C151.028 21.9205 150.871 21.1061 150.871 20.1477C150.871 19.178 151.03 18.3598 151.348 17.6932C151.67 17.0227 152.104 16.517 152.649 16.1761C153.195 15.8314 153.803 15.6591 154.473 15.6591C154.984 15.6591 155.405 15.7462 155.734 15.9205C156.064 16.0909 156.325 16.2973 156.518 16.5398C156.712 16.7784 156.861 17.0038 156.967 17.2159H157.053V12.8636H159.115V24.5H157.092V23.125H156.967C156.861 23.3371 156.708 23.5625 156.507 23.8011C156.306 24.036 156.041 24.2367 155.712 24.4034C155.382 24.5701 154.967 24.6534 154.467 24.6534ZM155.041 22.9659C155.477 22.9659 155.848 22.8485 156.155 22.6136C156.462 22.375 156.695 22.0436 156.854 21.6193C157.013 21.1951 157.092 20.7008 157.092 20.1364C157.092 19.572 157.013 19.0814 156.854 18.6648C156.698 18.2481 156.467 17.9242 156.161 17.6932C155.857 17.4621 155.484 17.3466 155.041 17.3466C154.583 17.3466 154.2 17.4659 153.893 17.7045C153.587 17.9432 153.356 18.2727 153.2 18.6932C153.045 19.1136 152.967 19.5947 152.967 20.1364C152.967 20.6818 153.045 21.1686 153.2 21.5966C153.359 22.0208 153.592 22.3561 153.899 22.6023C154.21 22.8447 154.59 22.9659 155.041 22.9659ZM171.69 16.0625C171.637 15.5663 171.414 15.1799 171.02 14.9034C170.63 14.6269 170.122 14.4886 169.497 14.4886C169.058 14.4886 168.681 14.5549 168.366 14.6875C168.052 14.8201 167.812 15 167.645 15.2273C167.478 15.4545 167.393 15.714 167.389 16.0057C167.389 16.2481 167.444 16.4583 167.554 16.6364C167.668 16.8144 167.821 16.9659 168.014 17.0909C168.207 17.2121 168.421 17.3144 168.656 17.3977C168.891 17.4811 169.128 17.5511 169.366 17.608L170.457 17.8807C170.897 17.983 171.319 18.1212 171.724 18.2955C172.134 18.4697 172.499 18.6894 172.821 18.9545C173.147 19.2197 173.404 19.5398 173.594 19.9148C173.783 20.2898 173.878 20.7292 173.878 21.233C173.878 21.9148 173.704 22.5152 173.355 23.0341C173.007 23.5492 172.503 23.9527 171.844 24.2443C171.188 24.5322 170.395 24.6761 169.463 24.6761C168.558 24.6761 167.772 24.536 167.105 24.2557C166.442 23.9754 165.923 23.5663 165.548 23.0284C165.177 22.4905 164.976 21.8352 164.946 21.0625H167.02C167.05 21.4678 167.175 21.8049 167.395 22.0739C167.615 22.3428 167.901 22.5436 168.253 22.6761C168.609 22.8087 169.007 22.875 169.446 22.875C169.904 22.875 170.306 22.8068 170.651 22.6705C170.999 22.5303 171.272 22.3371 171.469 22.0909C171.666 21.8409 171.766 21.5492 171.77 21.2159C171.766 20.9129 171.677 20.6629 171.503 20.4659C171.329 20.2652 171.084 20.0985 170.77 19.9659C170.459 19.8295 170.096 19.7083 169.679 19.6023L168.355 19.2614C167.397 19.0152 166.639 18.642 166.082 18.142C165.529 17.6383 165.253 16.9697 165.253 16.1364C165.253 15.4508 165.438 14.8504 165.81 14.3352C166.185 13.8201 166.694 13.4205 167.338 13.1364C167.982 12.8485 168.711 12.7045 169.526 12.7045C170.351 12.7045 171.075 12.8485 171.696 13.1364C172.321 13.4205 172.812 13.8163 173.168 14.3239C173.524 14.8277 173.707 15.4072 173.719 16.0625H171.69ZM179.53 24.6705C178.655 24.6705 177.899 24.4886 177.263 24.125C176.63 23.7576 176.143 23.2386 175.803 22.5682C175.462 21.8939 175.291 21.1004 175.291 20.1875C175.291 19.2898 175.462 18.5019 175.803 17.8239C176.147 17.142 176.628 16.6117 177.246 16.233C177.863 15.8504 178.589 15.6591 179.422 15.6591C179.96 15.6591 180.467 15.7462 180.945 15.9205C181.426 16.0909 181.85 16.3561 182.217 16.7159C182.589 17.0758 182.88 17.5341 183.092 18.0909C183.304 18.6439 183.411 19.303 183.411 20.0682V20.6989H176.257V19.3125H181.439C181.435 18.9186 181.35 18.5682 181.183 18.2614C181.017 17.9508 180.784 17.7064 180.484 17.5284C180.189 17.3504 179.844 17.2614 179.45 17.2614C179.03 17.2614 178.661 17.3636 178.342 17.5682C178.024 17.7689 177.776 18.0341 177.598 18.3636C177.424 18.6894 177.335 19.0473 177.331 19.4375V20.6477C177.331 21.1553 177.424 21.5909 177.609 21.9545C177.795 22.3144 178.054 22.5909 178.388 22.7841C178.721 22.9735 179.111 23.0682 179.558 23.0682C179.857 23.0682 180.128 23.0265 180.371 22.9432C180.613 22.8561 180.823 22.7292 181.001 22.5625C181.179 22.3958 181.314 22.1894 181.405 21.9432L183.325 22.1591C183.204 22.6667 182.973 23.1098 182.632 23.4886C182.295 23.8636 181.863 24.1553 181.337 24.3636C180.81 24.5682 180.208 24.6705 179.53 24.6705ZM188.957 24.6705C188.086 24.6705 187.338 24.4792 186.713 24.0966C186.092 23.714 185.613 23.1856 185.276 22.5114C184.942 21.8333 184.776 21.053 184.776 20.1705C184.776 19.2841 184.946 18.5019 185.287 17.8239C185.628 17.142 186.109 16.6117 186.73 16.233C187.355 15.8504 188.094 15.6591 188.946 15.6591C189.654 15.6591 190.281 15.7898 190.827 16.0511C191.376 16.3087 191.813 16.6742 192.139 17.1477C192.465 17.6174 192.651 18.1667 192.696 18.7955H190.73C190.651 18.375 190.461 18.0246 190.162 17.7443C189.866 17.4602 189.471 17.3182 188.974 17.3182C188.554 17.3182 188.185 17.4318 187.866 17.6591C187.548 17.8826 187.3 18.2045 187.122 18.625C186.948 19.0455 186.861 19.5492 186.861 20.1364C186.861 20.7311 186.948 21.2424 187.122 21.6705C187.296 22.0947 187.541 22.4223 187.855 22.6534C188.173 22.8807 188.546 22.9943 188.974 22.9943C189.277 22.9943 189.548 22.9375 189.787 22.8239C190.029 22.7064 190.232 22.5379 190.395 22.3182C190.558 22.0985 190.67 21.8314 190.73 21.517H192.696C192.647 22.1345 192.465 22.6818 192.151 23.1591C191.836 23.6326 191.408 24.0038 190.866 24.2727C190.325 24.5379 189.688 24.6705 188.957 24.6705ZM199.947 20.8295V15.7727H202.004V24.5H200.01V22.9489H199.919C199.722 23.4375 199.398 23.8371 198.947 24.1477C198.5 24.4583 197.949 24.6136 197.294 24.6136C196.722 24.6136 196.216 24.4867 195.777 24.233C195.341 23.9754 195 23.6023 194.754 23.1136C194.508 22.6212 194.385 22.0265 194.385 21.3295V15.7727H196.442V21.0114C196.442 21.5644 196.593 22.0038 196.896 22.3295C197.199 22.6553 197.597 22.8182 198.089 22.8182C198.393 22.8182 198.686 22.7443 198.97 22.5966C199.254 22.4489 199.487 22.2292 199.669 21.9375C199.855 21.642 199.947 21.2727 199.947 20.8295ZM204.119 24.5V15.7727H206.114V17.2273H206.205C206.364 16.7235 206.636 16.3352 207.023 16.0625C207.413 15.786 207.858 15.6477 208.358 15.6477C208.472 15.6477 208.598 15.6534 208.739 15.6648C208.883 15.6723 209.002 15.6856 209.097 15.7045V17.5966C209.009 17.5663 208.871 17.5398 208.682 17.517C208.496 17.4905 208.316 17.4773 208.142 17.4773C207.767 17.4773 207.43 17.5587 207.131 17.7216C206.835 17.8807 206.602 18.1023 206.432 18.3864C206.261 18.6705 206.176 18.9981 206.176 19.3693V24.5H204.119ZM213.967 24.6705C213.092 24.6705 212.337 24.4886 211.7 24.125C211.068 23.7576 210.581 23.2386 210.24 22.5682C209.899 21.8939 209.729 21.1004 209.729 20.1875C209.729 19.2898 209.899 18.5019 210.24 17.8239C210.585 17.142 211.066 16.6117 211.683 16.233C212.301 15.8504 213.026 15.6591 213.859 15.6591C214.397 15.6591 214.905 15.7462 215.382 15.9205C215.863 16.0909 216.287 16.3561 216.655 16.7159C217.026 17.0758 217.318 17.5341 217.53 18.0909C217.742 18.6439 217.848 19.303 217.848 20.0682V20.6989H210.695V19.3125H215.876C215.873 18.9186 215.787 18.5682 215.621 18.2614C215.454 17.9508 215.221 17.7064 214.922 17.5284C214.626 17.3504 214.282 17.2614 213.888 17.2614C213.467 17.2614 213.098 17.3636 212.78 17.5682C212.462 17.7689 212.214 18.0341 212.036 18.3636C211.861 18.6894 211.772 19.0473 211.768 19.4375V20.6477C211.768 21.1553 211.861 21.5909 212.047 21.9545C212.232 22.3144 212.492 22.5909 212.825 22.7841C213.159 22.9735 213.549 23.0682 213.996 23.0682C214.295 23.0682 214.566 23.0265 214.808 22.9432C215.051 22.8561 215.261 22.7292 215.439 22.5625C215.617 22.3958 215.751 22.1894 215.842 21.9432L217.763 22.1591C217.642 22.6667 217.411 23.1098 217.07 23.4886C216.732 23.8636 216.301 24.1553 215.774 24.3636C215.248 24.5682 214.645 24.6705 213.967 24.6705Z" fill="#F4F4F4"/>
<defs>
<clipPath id="clip0_1_1921">
<rect width="22" height="26" fill="white" transform="translate(0 6)"/>
</clipPath>
</defs>
</svg>
