<svg width="266" height="38" viewBox="0 0 266 38" fill="none" xmlns="http://www.w3.org/2000/svg">
<g clip-path="url(#clip0_1_1925)">
<g clip-path="url(#clip1_1_1925)">
<path d="M28.2257 14.9364H17.5335L14.2309 5L10.9179 14.9364L0.225708 14.9264L8.88476 21.0736L5.57182 31L14.2309 24.8628L22.8796 31L19.577 21.0736L28.2257 14.9364Z" fill="#00B67A"/>
<path d="M33.2365 13H45.5934V15.1448H40.7347V27.2016H38.0629V15.1448H33.2257V13H33.2365ZM45.0655 16.9187H47.3495V18.9031H47.3926C47.468 18.6225 47.608 18.3519 47.8127 18.0913C48.0174 17.8307 48.2652 17.5802 48.5561 17.3697C48.847 17.1492 49.1702 16.9788 49.5257 16.8385C49.8812 16.7082 50.2475 16.6381 50.6138 16.6381C50.8939 16.6381 51.0986 16.6481 51.2063 16.6581C51.314 16.6682 51.4218 16.6882 51.5403 16.6982V18.8831C51.3679 18.853 51.1955 18.833 51.0124 18.8129C50.8292 18.7929 50.6569 18.7829 50.4845 18.7829C50.0751 18.7829 49.6873 18.863 49.321 19.0134C48.9547 19.1637 48.6423 19.3942 48.3729 19.6849C48.1036 19.9855 47.8881 20.3463 47.7265 20.7873C47.5649 21.2283 47.4895 21.7294 47.4895 22.3007V27.1915H45.0548V16.9187L45.0655 16.9187ZM62.7337 27.2016H60.3421V25.7684H60.299C59.9973 26.2895 59.5556 26.7004 58.9631 27.0111C58.3705 27.3218 57.7672 27.4822 57.1532 27.4822C55.6988 27.4822 54.643 27.1515 53.9966 26.48C53.3502 25.8085 53.027 24.7962 53.027 23.4432V16.9187H55.4618V23.2227C55.4618 24.1247 55.6449 24.7661 56.022 25.137C56.3883 25.5078 56.9162 25.6982 57.5841 25.6982C58.1012 25.6982 58.5214 25.6281 58.8661 25.4777C59.2109 25.3274 59.491 25.137 59.6957 24.8864C59.9111 24.6459 60.062 24.3452 60.1589 24.0045C60.2559 23.6637 60.299 23.2929 60.299 22.892V16.9287H62.7337V27.2016ZM66.8814 23.9042C66.9569 24.5657 67.2262 25.0267 67.6894 25.2973C68.1635 25.5579 68.7237 25.6982 69.3808 25.6982C69.6071 25.6982 69.8656 25.6782 70.1565 25.6481C70.4474 25.618 70.7275 25.5479 70.9753 25.4577C71.2338 25.3675 71.4385 25.2272 71.6109 25.0468C71.7725 24.8664 71.8479 24.6359 71.8372 24.3452C71.8264 24.0546 71.7079 23.814 71.4924 23.6336C71.2769 23.4432 71.0076 23.3029 70.6736 23.1826C70.3397 23.0724 69.9626 22.9722 69.5317 22.892C69.1007 22.8118 68.6698 22.7216 68.2281 22.6314C67.7756 22.5412 67.3339 22.4209 66.9138 22.2906C66.4936 22.1604 66.1165 21.98 65.7826 21.7494C65.4486 21.529 65.1793 21.2383 64.9853 20.8875C64.7807 20.5367 64.6837 20.1058 64.6837 19.5846C64.6837 19.0234 64.8345 18.5624 65.1254 18.1815C65.4163 17.8007 65.7933 17.5 66.235 17.2695C66.6875 17.039 67.1831 16.8786 67.7325 16.7784C68.282 16.6882 68.8099 16.6381 69.3054 16.6381C69.8764 16.6381 70.4258 16.6982 70.943 16.8085C71.4601 16.9187 71.9341 17.0991 72.3543 17.3597C72.7744 17.6102 73.1192 17.941 73.3993 18.3419C73.6794 18.7428 73.8518 19.2339 73.9272 19.8051H71.3847C71.2662 19.2639 71.0076 18.8931 70.5874 18.7127C70.1673 18.5223 69.6825 18.4321 69.1438 18.4321C68.9715 18.4321 68.7668 18.4421 68.5298 18.4722C68.2927 18.5022 68.0773 18.5523 67.8618 18.6225C67.6571 18.6927 67.4847 18.8029 67.3339 18.9432C67.1939 19.0835 67.1185 19.2639 67.1185 19.4944C67.1185 19.7751 67.2262 19.9955 67.4309 20.1659C67.6356 20.3363 67.9049 20.4766 68.2389 20.5969C68.5728 20.7071 68.9499 20.8073 69.3808 20.8875C69.8118 20.9677 70.2535 21.0579 70.706 21.1481C71.1477 21.2383 71.5786 21.3586 72.0095 21.4889C72.4404 21.6192 72.8175 21.7996 73.1515 22.0301C73.4855 22.2606 73.7548 22.5412 73.9595 22.882C74.1642 23.2227 74.2719 23.6537 74.2719 24.1548C74.2719 24.7661 74.1211 25.2773 73.8194 25.7082C73.5178 26.1292 73.1299 26.48 72.6559 26.7405C72.1819 27.0011 71.6432 27.2016 71.0615 27.3218C70.4797 27.4421 69.898 27.5022 69.327 27.5022C68.6267 27.5022 67.9803 27.4321 67.3878 27.2817C66.7953 27.1314 66.2781 26.9109 65.8472 26.6203C65.4163 26.3196 65.0715 25.9488 64.8237 25.5078C64.576 25.0668 64.4467 24.5356 64.4251 23.9243H66.8814V23.9042ZM74.9183 16.9187H76.7605V13.8318H79.1953V16.9187H81.3931V18.6125H79.1953V24.1047C79.1953 24.3452 79.2061 24.5457 79.2276 24.7261C79.2492 24.8964 79.303 25.0468 79.3784 25.167C79.4539 25.2873 79.5724 25.3775 79.734 25.4376C79.8956 25.4978 80.1003 25.5278 80.3804 25.5278C80.5527 25.5278 80.7251 25.5278 80.8975 25.5178C81.0699 25.5078 81.2422 25.4878 81.4146 25.4477V27.2016C81.1453 27.2316 80.8759 27.2517 80.6281 27.2817C80.3696 27.3118 80.111 27.3218 79.8417 27.3218C79.1953 27.3218 78.6782 27.2617 78.2903 27.1514C77.9025 27.0412 77.5901 26.8708 77.3746 26.6503C77.1484 26.4298 77.0083 26.1592 76.9221 25.8285C76.8467 25.4978 76.7929 25.1169 76.7821 24.696V18.6325H74.9399V16.9187H74.9183ZM83.1168 16.9187H85.4223V18.3118H85.4653C85.8101 17.7105 86.2841 17.2895 86.8982 17.029C87.5123 16.7684 88.1694 16.6381 88.8913 16.6381C89.7639 16.6381 90.518 16.7784 91.1644 17.069C91.8108 17.3497 92.3495 17.7405 92.7804 18.2416C93.2113 18.7428 93.5238 19.3241 93.7392 19.9855C93.9547 20.647 94.0624 21.3586 94.0624 22.1102C94.0624 22.8018 93.9655 23.4733 93.7715 24.1147C93.5776 24.7661 93.2868 25.3374 92.8989 25.8385C92.5111 26.3396 92.0155 26.7305 91.4122 27.0312C90.8089 27.3319 90.1086 27.4822 89.2899 27.4822C88.9343 27.4822 88.5788 27.4521 88.2233 27.392C87.8678 27.3318 87.523 27.2316 87.1998 27.1013C86.8766 26.971 86.5642 26.8007 86.2949 26.5902C86.0148 26.3797 85.7886 26.1392 85.5946 25.8686H85.5515V31H83.1168V16.9187ZM91.6277 22.0702C91.6277 21.6091 91.563 21.1581 91.4338 20.7172C91.3045 20.2762 91.1105 19.8953 90.852 19.5546C90.5934 19.2138 90.2702 18.9432 89.8932 18.7428C89.5053 18.5423 89.0636 18.4321 88.5681 18.4321C87.5446 18.4321 86.7689 18.7628 86.2518 19.4243C85.7347 20.0857 85.4761 20.9677 85.4761 22.0702C85.4761 22.5913 85.5408 23.0724 85.6808 23.5134C85.8209 23.9543 86.0148 24.3352 86.2949 24.6559C86.5642 24.9766 86.8874 25.2272 87.2645 25.4076C87.6416 25.598 88.0833 25.6882 88.5788 25.6882C89.139 25.6882 89.6023 25.578 89.9901 25.3675C90.378 25.157 90.6904 24.8764 90.9382 24.5457C91.186 24.2049 91.3691 23.8241 91.4768 23.3931C91.5738 22.9621 91.6277 22.5212 91.6277 22.0702ZM95.9262 13H98.361V15.1448H95.9262V13ZM95.9262 16.9187H98.361V27.2016H95.9262V16.9187ZM100.537 13H102.972V27.2016H100.537V13ZM110.438 27.4822C109.554 27.4822 108.768 27.3419 108.078 27.0713C107.389 26.8007 106.807 26.4198 106.322 25.9488C105.848 25.4677 105.482 24.8964 105.234 24.235C104.987 23.5735 104.857 22.8419 104.857 22.0501C104.857 21.2684 104.987 20.5468 105.234 19.8853C105.482 19.2238 105.848 18.6526 106.322 18.1715C106.796 17.6904 107.389 17.3196 108.078 17.049C108.768 16.7784 109.554 16.6381 110.438 16.6381C111.321 16.6381 112.108 16.7784 112.797 17.049C113.487 17.3196 114.068 17.7004 114.553 18.1715C115.027 18.6526 115.394 19.2238 115.641 19.8853C115.889 20.5468 116.018 21.2684 116.018 22.0501C116.018 22.8419 115.889 23.5735 115.641 24.235C115.394 24.8964 115.027 25.4677 114.553 25.9488C114.079 26.4298 113.487 26.8007 112.797 27.0713C112.108 27.3419 111.321 27.4822 110.438 27.4822ZM110.438 25.6882C110.976 25.6882 111.451 25.578 111.849 25.3675C112.248 25.157 112.571 24.8764 112.829 24.5356C113.088 24.1949 113.271 23.804 113.4 23.3731C113.519 22.9421 113.584 22.5011 113.584 22.0501C113.584 21.6091 113.519 21.1782 113.4 20.7372C113.282 20.2962 113.088 19.9154 112.829 19.5746C112.571 19.2339 112.248 18.9633 111.849 18.7528C111.451 18.5423 110.976 18.4321 110.438 18.4321C109.899 18.4321 109.425 18.5423 109.027 18.7528C108.628 18.9633 108.305 19.2439 108.046 19.5746C107.788 19.9154 107.604 20.2962 107.475 20.7372C107.357 21.1782 107.292 21.6091 107.292 22.0501C107.292 22.5011 107.357 22.9421 107.475 23.3731C107.594 23.804 107.788 24.1949 108.046 24.5356C108.305 24.8764 108.628 25.157 109.027 25.3675C109.425 25.588 109.899 25.6882 110.438 25.6882ZM116.729 16.9187H118.572V13.8318H121.006V16.9187H123.204V18.6125H121.006V24.1047C121.006 24.3452 121.017 24.5457 121.039 24.7261C121.06 24.8964 121.114 25.0468 121.19 25.167C121.265 25.2873 121.383 25.3775 121.545 25.4376C121.707 25.4978 121.911 25.5278 122.191 25.5278C122.364 25.5278 122.536 25.5278 122.709 25.5178C122.881 25.5078 123.053 25.4878 123.226 25.4477V27.2016C122.956 27.2316 122.687 27.2517 122.439 27.2817C122.181 27.3118 121.922 27.3218 121.653 27.3218C121.006 27.3218 120.489 27.2617 120.101 27.1514C119.714 27.0412 119.401 26.8708 119.186 26.6503C118.959 26.4298 118.819 26.1592 118.733 25.8285C118.658 25.4978 118.604 25.1169 118.593 24.696V18.6325H116.751V16.9187L116.729 16.9187Z" fill="#F4F4F4"/>
<path d="M21.3421 21.9937L20.5612 19.9274L14.9432 23.4114L21.3421 21.9937Z" fill="#005128"/>
</g>
<g clip-path="url(#clip2_1_1925)">
<path d="M133.226 31H157.245V7.00439H133.226V31Z" fill="#00B67A"/>
<path d="M153.701 17.2133L140.078 27.1005L142.066 20.99L136.862 17.2128H143.295L145.282 11.1022L147.269 17.2128H153.701V17.2133ZM145.283 23.3248L149.003 22.5422L150.485 27.1L145.283 23.3248Z" fill="#F4F4F4"/>
<path d="M160.245 31H184.265V7.00439H160.245V31Z" fill="#00B67A"/>
<path d="M160.245 31H172.255V7.00439H160.245V31Z" fill="#00B67A"/>
<path d="M172.542 23.2311L175.733 22.5422L177.208 27.2036L172.205 23.473L167.007 27.2036L169.024 21.0713L163.742 17.2801H170.271L172.288 11.1478L174.305 17.2806H180.834L172.542 23.2311Z" fill="#F4F4F4"/>
<path d="M187.265 31H211.284V7.00439H187.265V31Z" fill="#00B67A"/>
<path d="M187.265 31H199.274V7.00439H187.265V31Z" fill="#00B67A"/>
<path d="M207.741 17.2133L194.117 27.1006L196.106 20.99L190.901 17.2133H197.334L199.321 11.1028L201.309 17.2133H207.741ZM199.322 23.3249L203.042 22.5428L204.525 27.1006L199.322 23.3249Z" fill="#F4F4F4"/>
<path d="M214.284 31H238.303V7.00439H214.284V31Z" fill="#00B67A"/>
<path d="M214.284 31H226.294V7.00439H214.284V31Z" fill="#00B67A"/>
<path d="M234.759 17.2133L221.136 27.1006L223.124 20.99L217.92 17.2133H224.353L226.34 11.1028L228.327 17.2133H234.759ZM226.34 23.3249L230.061 22.5428L231.543 27.1006L226.34 23.3249Z" fill="#F4F4F4"/>
<path d="M241.303 31H265.323V7.00439H241.303V31Z" fill="#DCDCE6"/>
<path d="M241.303 31H253.313V7.00439H241.303V31Z" fill="#00B67A"/>
<path d="M261.779 17.2133L248.156 27.1006L250.143 20.99L244.939 17.2133H251.372L253.359 11.1028L255.347 17.2133H261.779ZM253.36 23.3249L257.08 22.5428L258.562 27.1006L253.36 23.3249Z" fill="#F4F4F4"/>
</g>
</g>
<defs>
<clipPath id="clip0_1_1925">
<rect width="265.097" height="38" fill="white" transform="translate(0.225708)"/>
</clipPath>
<clipPath id="clip1_1_1925">
<rect width="123" height="26" fill="white" transform="translate(0.225708 5)"/>
</clipPath>
<clipPath id="clip2_1_1925">
<rect width="132.097" height="23.9956" fill="white" transform="translate(133.226 7.00439)"/>
</clipPath>
</defs>
</svg>
