<svg width="23" height="22" viewBox="0 0 23 22" fill="none" xmlns="http://www.w3.org/2000/svg">
<g clip-path="url(#clip0_1_1952)">
<path d="M11.5486 22C17.6237 22 22.5486 17.0751 22.5486 11C22.5486 4.92487 17.6237 0 11.5486 0C5.47345 0 0.548584 4.92487 0.548584 11C0.548584 17.0751 5.47345 22 11.5486 22Z" fill="#F4F4F4"/>
<path d="M11.5486 0C6.819 0 2.78724 2.98504 1.23264 7.17406H21.8645C20.3099 2.98504 16.2786 0 11.5486 0Z" fill="#AE1C28"/>
<path d="M11.5486 22C16.2781 22 20.3099 19.015 21.8645 14.8259H1.23264C2.78724 19.015 6.81857 22 11.5486 22Z" fill="#21468B"/>
</g>
<defs>
<clipPath id="clip0_1_1952">
<rect width="22" height="22" fill="white" transform="translate(0.548584)"/>
</clipPath>
</defs>
</svg>
