<svg width="28" height="25" viewBox="0 0 28 25" fill="none" xmlns="http://www.w3.org/2000/svg">
<path d="M19.5 19.0311H10.4058C10.081 19.0312 9.76665 18.9163 9.51842 18.7066C9.27028 18.4971 9.10435 18.2065 9.05 17.8863L6.63275 3.67793C6.5782 3.35789 6.4122 3.06745 6.16405 2.85807C5.91592 2.64868 5.60168 2.53386 5.277 2.53394H4.375" stroke="#F4F4F4" stroke-linecap="round" stroke-linejoin="round"/>
<path d="M17.7812 21.7812C17.9711 21.7812 18.125 21.6274 18.125 21.4375C18.125 21.2476 17.9711 21.0938 17.7812 21.0938" stroke="#F4F4F4"/>
<path d="M17.7812 21.7812C17.5914 21.7812 17.4375 21.6274 17.4375 21.4375C17.4375 21.2476 17.5914 21.0938 17.7812 21.0938" stroke="#F4F4F4"/>
<path d="M10.9062 21.7812C11.0961 21.7812 11.25 21.6274 11.25 21.4375C11.25 21.2476 11.0961 21.0938 10.9062 21.0938" stroke="#F4F4F4"/>
<path d="M10.9062 21.7812C10.7164 21.7812 10.5625 21.6274 10.5625 21.4375C10.5625 21.2476 10.7164 21.0938 10.9062 21.0938" stroke="#F4F4F4"/>
<path d="M8.54318 14.9063H19.6082C20.2215 14.9062 20.817 14.7013 21.3003 14.3239C21.7836 13.9466 22.1269 13.4185 22.2757 12.8237L23.6049 7.50698C23.6302 7.40559 23.6321 7.29975 23.6106 7.19751C23.5888 7.09526 23.5441 6.99931 23.4798 6.91694C23.4154 6.83458 23.3332 6.76796 23.2392 6.72216C23.1453 6.67637 23.0421 6.65259 22.9376 6.65265H7.13977" stroke="#F4F4F4" stroke-linecap="round" stroke-linejoin="round"/>
</svg>
