<svg width="33" height="25" viewBox="0 0 33 25" fill="none" xmlns="http://www.w3.org/2000/svg">
<path d="M16.5004 21.5L7.55196 12.3566C6.7655 11.5867 6.24642 10.5938 6.06835 9.5187C5.89028 8.44356 6.06224 7.34079 6.55986 6.36679C6.9351 5.63177 7.48324 4.99462 8.15911 4.50784C8.83498 4.02105 9.61925 3.69857 10.4473 3.56695C11.2753 3.43534 12.1234 3.49836 12.9217 3.75082C13.72 4.00329 14.4457 4.43797 15.0389 5.01906L16.5004 6.45L17.962 5.01906C18.5552 4.43797 19.2808 4.00329 20.0791 3.75082C20.8774 3.49836 21.7255 3.43534 22.5535 3.56695C23.3816 3.69857 24.1658 4.02105 24.8417 4.50784C25.5176 4.99462 26.0657 5.63177 26.441 6.36679C26.9379 7.34042 27.1096 8.44253 26.9317 9.51705C26.7538 10.5916 26.2354 11.584 25.4498 12.3539L16.5004 21.5Z" stroke="#F4F4F4" stroke-width="1.5" stroke-linecap="round" stroke-linejoin="round"/>
</svg>
