<svg width="88" height="25" viewBox="0 0 88 25" fill="none" xmlns="http://www.w3.org/2000/svg">
<g clip-path="url(#clip0_1_1890)">
<path d="M38.3134 9.91707C36.4355 9.91717 34.6347 10.6632 33.3069 11.991C31.9791 13.3189 31.2332 15.1198 31.2332 16.9976V24.9635H51.1021L53.9203 19.6529H36.79V17.5239C36.79 16.9145 37.032 16.3301 37.4629 15.8992C37.8938 15.4682 38.4782 15.2261 39.0876 15.2261L50.2624 15.2252C52.2576 15.2252 54.1712 14.4326 55.5821 13.0217C56.9929 11.6108 57.7856 9.69725 57.7856 7.70197C57.7856 5.7067 56.9929 3.79314 55.5821 2.38227C54.1712 0.971392 52.2576 0.178772 50.2624 0.178772L36.964 0.181172C36.2666 0.181163 35.576 0.318516 34.9317 0.585389C34.2874 0.852262 33.7019 1.24343 33.2088 1.73655C32.7157 2.22968 32.3245 2.81511 32.0576 3.45941C31.7907 4.10372 31.6534 4.79428 31.6534 5.49167L49.8752 5.49117C50.4581 5.48638 51.02 5.70849 51.4421 6.11053C51.8641 6.51257 52.1133 7.06303 52.1369 7.64547C52.1449 7.94058 52.0938 8.23432 51.9865 8.50936C51.8792 8.78439 51.7179 9.03515 51.5122 9.24684C51.3064 9.45853 51.0603 9.62687 50.7884 9.74191C50.5165 9.85695 50.2244 9.91638 49.9292 9.91667L38.3134 9.91707Z" fill="#EBEBEB"/>
<path d="M12.7173 19.6395C10.8426 19.6395 9.04474 18.8948 7.71917 17.5692C6.3936 16.2436 5.6489 14.4457 5.6489 12.5711C5.6489 10.6965 6.3936 8.8986 7.71917 7.57302C9.04474 6.24745 10.8426 5.50275 12.7173 5.50275L27.0656 5.49165V0.181152L12.3795 0.191552C9.09629 0.191552 5.9475 1.49582 3.62589 3.81744C1.30427 6.13905 0 9.28784 0 12.5711C0 15.8544 1.30427 19.0032 3.62589 21.3248C5.9475 23.6464 9.09629 24.9507 12.3795 24.9507L27.0656 24.9631V9.91655L11.1339 9.91695V15.2277L21.5089 15.2275V19.6527L12.7173 19.6395Z" fill="#F05F00"/>
<path d="M71.5568 21.9496H70.7019C70.3023 21.9496 69.9191 22.1083 69.6365 22.3909C69.3539 22.6735 69.1952 23.0567 69.1952 23.4563C69.1952 23.8559 69.3539 24.2392 69.6365 24.5218C69.9191 24.8043 70.3023 24.9631 70.7019 24.9631H71.5568C71.9565 24.9631 72.3397 24.8043 72.6223 24.5218C72.9048 24.2392 73.0636 23.8559 73.0636 23.4563C73.0636 23.0567 72.9048 22.6735 72.6223 22.3909C72.3397 22.1083 71.9565 21.9496 71.5568 21.9496ZM71.5261 24.3332H70.7326C70.5001 24.3332 70.2771 24.2408 70.1127 24.0764C69.9483 23.912 69.8559 23.689 69.8559 23.4564C69.8559 23.2239 69.9483 23.0009 70.1127 22.8365C70.2771 22.6721 70.5001 22.5797 70.7326 22.5797H71.5261C71.7587 22.5797 71.9817 22.6721 72.1461 22.8365C72.3105 23.0009 72.4029 23.2239 72.4029 23.4564C72.4029 23.689 72.3105 23.912 72.1461 24.0764C71.9817 24.2408 71.7587 24.3332 71.5261 24.3332Z" fill="#0084C1"/>
<path d="M65.5481 23.4563C65.5485 23.8558 65.7074 24.2388 65.9899 24.5212C66.2723 24.8037 66.6553 24.9626 67.0548 24.9631H68.7774V24.3332H67.0856C66.8531 24.3332 66.6301 24.2408 66.4656 24.0764C66.3012 23.912 66.2088 23.689 66.2088 23.4564C66.2088 23.2239 66.3012 23.0009 66.4656 22.8365C66.6301 22.6721 66.8531 22.5797 67.0856 22.5797H68.7774V21.9496H67.0548C66.6553 21.95 66.2724 22.1089 65.9899 22.3914C65.7074 22.6738 65.5485 23.0568 65.5481 23.4563Z" fill="#0084C1"/>
<path d="M76.399 21.9496L75.742 23.7546L75.085 21.9496H74.253L73.136 24.9626H73.845L74.669 22.6486L75.403 24.6656H76.081L76.815 22.6486L77.639 24.9626H78.347L77.231 21.9496H76.399Z" fill="#0084C1"/>
<path d="M64.7711 24.9631C64.9984 24.9631 65.1827 24.7788 65.1827 24.5515C65.1827 24.3242 64.9984 24.1399 64.7711 24.1399C64.5438 24.1399 64.3595 24.3242 64.3595 24.5515C64.3595 24.7788 64.5438 24.9631 64.7711 24.9631Z" fill="#0084C1"/>
<path d="M75.9707 3.03645C75.5615 2.23178 74.9795 1.52748 74.2663 0.973947C73.4313 0.353202 72.4155 0.023864 71.375 0.0365469C70.3584 0.0238797 69.3672 0.354108 68.5612 0.973947C67.8481 1.52748 67.2661 2.23178 66.8568 3.03645C62.2153 11.8784 55.2651 24.9634 55.2651 24.9634H61.6076L71.375 6.25075L75.9652 15.045H68.8979L71.3895 19.8027H78.4487L81.1424 24.9634H87.4848C87.4848 24.9634 80.6121 11.8784 75.9707 3.03645Z" fill="#0084C1"/>
</g>
<defs>
<clipPath id="clip0_1_1890">
<rect width="87.4849" height="24.9269" fill="white" transform="translate(0 0.0365601)"/>
</clipPath>
</defs>
</svg>
