<svg width="24" height="25" viewBox="0 0 24 25" fill="none" xmlns="http://www.w3.org/2000/svg">
<path fill-rule="evenodd" clip-rule="evenodd" d="M11.667 1.75C10.2303 1.75 8.8525 2.32072 7.83661 3.3366C6.82073 4.35249 6.25001 5.73032 6.25001 7.167C6.25001 8.60368 6.82073 9.98151 7.83661 10.9974C8.8525 12.0133 10.2303 12.584 11.667 12.584C13.1037 12.584 14.4815 12.0133 15.4974 10.9974C16.5133 9.98151 17.084 8.60368 17.084 7.167C17.084 5.73032 16.5133 4.35249 15.4974 3.3366C14.4815 2.32072 13.1037 1.75 11.667 1.75ZM8.89701 4.397C9.26077 4.03324 9.69262 3.74469 10.1679 3.54782C10.6432 3.35095 11.1526 3.24963 11.667 3.24963C12.1814 3.24963 12.6908 3.35095 13.1661 3.54782C13.6414 3.74469 14.0732 4.03324 14.437 4.397C14.8008 4.76076 15.0893 5.19261 15.2862 5.66789C15.4831 6.14316 15.5844 6.65256 15.5844 7.167C15.5844 7.68144 15.4831 8.19084 15.2862 8.66611C15.0893 9.14139 14.8008 9.57324 14.437 9.937C13.7024 10.6716 12.706 11.0844 11.667 11.0844C10.6281 11.0844 9.63166 10.6716 8.89701 9.937C8.16236 9.20235 7.74964 8.20595 7.74964 7.167C7.74964 6.12805 8.16236 5.13165 8.89701 4.397ZM6.07001 16.902C7.17733 15.7955 8.5878 15.0422 10.1232 14.7371C11.6585 14.4321 13.2499 14.589 14.6961 15.1881C16.1422 15.7872 17.3784 16.8016 18.2482 18.1031C19.118 19.4045 19.5826 20.9346 19.583 22.5C19.583 22.6989 19.662 22.8897 19.8027 23.0303C19.9433 23.171 20.1341 23.25 20.333 23.25C20.5319 23.25 20.7227 23.171 20.8633 23.0303C21.004 22.8897 21.083 22.6989 21.083 22.5C21.0958 21.2552 20.8617 20.0203 20.3943 18.8666C19.9268 17.7129 19.2352 16.6633 18.3596 15.7785C17.4839 14.8938 16.4415 14.1914 15.2926 13.7121C14.1438 13.2328 12.9113 12.986 11.6665 12.986C10.4217 12.986 9.18922 13.2328 8.04038 13.7121C6.89154 14.1914 5.84914 14.8938 4.97347 15.7785C4.09779 16.6633 3.40622 17.7129 2.93875 18.8666C2.47128 20.0203 2.23718 21.2552 2.25001 22.5C2.25001 22.6989 2.32903 22.8897 2.46968 23.0303C2.61033 23.171 2.8011 23.25 3.00001 23.25C3.19892 23.25 3.38969 23.171 3.53034 23.0303C3.67099 22.8897 3.75001 22.6989 3.75001 22.5C3.75001 20.4 4.58401 18.387 6.06901 16.902H6.07001Z" fill="#FFFCFC"/>
</svg>
