<svg width="29" height="22" viewBox="0 0 29 22" fill="none" xmlns="http://www.w3.org/2000/svg">
<g clip-path="url(#clip0_1_1162)">
<path d="M5.70388 21.9761C5.20034 21.9762 4.69903 21.9052 4.21314 21.765C2.75435 21.3231 1.51682 20.2927 0.765776 18.8946C0.0147319 17.4965 -0.190068 15.842 0.195268 14.2857L2.60599 4.57205C2.79422 3.78599 3.1287 3.04777 3.58977 2.40077C4.05083 1.75377 4.62918 1.21105 5.29083 0.80449C5.93358 0.409212 6.6438 0.152904 7.38047 0.0503688C8.11714 -0.0521668 8.86566 0.00110124 9.58281 0.207097C10.3469 0.431788 11.0587 0.822563 11.6728 1.3546C12.2869 1.88664 12.79 2.54832 13.1501 3.29761H15.8387C16.1983 2.54692 16.7022 1.88444 17.3179 1.35284C17.9336 0.821236 18.6474 0.4323 19.4134 0.211079C20.1312 0.00453681 20.8804 -0.0490129 21.6177 0.0535282C22.3551 0.156069 23.0659 0.412666 23.7092 0.808473C24.3673 1.2139 24.9434 1.75338 25.4042 2.39588C25.8649 3.03838 26.2013 3.77119 26.394 4.55214L28.8085 14.2857C29.1987 15.8474 28.9941 17.5093 28.2388 18.9125C27.4836 20.3156 26.2383 21.3473 24.7719 21.7849C24.0541 21.9915 23.3049 22.045 22.5676 21.9425C21.8302 21.8399 21.1194 21.5834 20.4761 21.1875C19.8168 20.7837 19.2398 20.2447 18.7789 19.602C18.3179 18.9592 17.9822 18.2256 17.7913 17.4439L17.6035 16.4761H11.389L11.1524 17.424C10.9615 18.2057 10.6257 18.9393 10.1648 19.582C9.70385 20.2248 9.1269 20.7638 8.46757 21.1676C7.62675 21.683 6.67496 21.9601 5.70388 21.9721V21.9761ZM8.10709 2.19841C7.4813 2.20047 6.86672 2.37475 6.32346 2.7042C5.47205 3.23422 4.85358 4.10072 4.60366 5.11369L2.19669 14.8233C1.94405 15.8238 2.07157 16.8895 2.55184 17.7914C3.03211 18.6932 3.82681 19.3592 4.76512 19.6463C5.2185 19.7774 5.69191 19.8119 6.15793 19.7476C6.62395 19.6834 7.07332 19.5217 7.48 19.2719C7.9033 19.0127 8.27349 18.6663 8.56882 18.2533C8.86416 17.8402 9.07868 17.3687 9.1998 16.8664L9.83815 14.2857H19.1619L19.7965 16.8664C19.9197 17.3677 20.1351 17.8382 20.4302 18.251C20.7253 18.6638 21.0944 19.0108 21.5163 19.2719C21.9246 19.5209 22.3752 19.6821 22.8423 19.7463C23.3095 19.8106 23.7839 19.7766 24.2386 19.6463C25.1768 19.3612 25.9713 18.6955 26.4499 17.7935C26.9286 16.8915 27.0528 15.8258 26.7958 14.8273L24.3851 5.1097C24.2647 4.60871 24.0517 4.13807 23.7584 3.72513C23.4651 3.31218 23.0974 2.96516 22.6766 2.7042C22.2677 2.4547 21.8164 2.29321 21.3486 2.22897C20.8809 2.16473 20.4057 2.199 19.9504 2.32983C19.3875 2.50026 18.871 2.81066 18.4439 3.23526C18.0168 3.65986 17.6914 4.18641 17.4946 4.77118L17.2468 5.49602H11.7532L11.5054 4.77118C11.307 4.1854 10.9797 3.65829 10.5506 3.23367C10.1215 2.80905 9.60305 2.49919 9.03833 2.32983C8.73465 2.24313 8.42158 2.19894 8.10709 2.19841Z" fill="#FF9800"/>
<path d="M8.28355 10.992C7.8736 10.9928 7.47263 10.8647 7.13135 10.6237C6.79008 10.3828 6.52382 10.04 6.36625 9.6386C6.20868 9.2372 6.16688 8.79525 6.24613 8.36865C6.32538 7.94205 6.52212 7.54995 6.81148 7.24194C7.10084 6.93393 7.46981 6.72385 7.87174 6.63825C8.27367 6.55265 8.69051 6.59538 9.06954 6.76105C9.44858 6.92671 9.77278 7.20786 10.0012 7.56895C10.2295 7.93004 10.3518 8.35484 10.3526 8.78964C10.3526 9.37201 10.1347 9.93058 9.7468 10.3427C9.35889 10.7549 8.83264 10.987 8.28355 10.9881V10.992ZM21.749 6.59522C21.749 6.81262 21.6883 7.02514 21.5744 7.20591C21.4605 7.38667 21.2986 7.52756 21.1093 7.61075C20.9199 7.69395 20.7115 7.71572 20.5105 7.6733C20.3094 7.63089 20.1248 7.5262 19.9798 7.37247C19.8349 7.21875 19.7362 7.02289 19.6962 6.80966C19.6562 6.59644 19.6767 6.37543 19.7552 6.17457C19.8336 5.97372 19.9664 5.80205 20.1369 5.68127C20.3073 5.56048 20.5077 5.49602 20.7127 5.49602C20.9875 5.49602 21.2511 5.61183 21.4455 5.81797C21.6399 6.02411 21.749 6.30369 21.749 6.59522ZM21.749 10.992C21.7483 11.2093 21.6869 11.4214 21.5726 11.6016C21.4582 11.7819 21.2961 11.9221 21.1067 12.0047C20.9172 12.0873 20.709 12.1085 20.5082 12.0656C20.3074 12.0228 20.1231 11.9178 19.9785 11.7639C19.8339 11.61 19.7356 11.4142 19.6959 11.201C19.6562 10.9879 19.677 10.7671 19.7555 10.5665C19.8341 10.3659 19.9669 10.1944 20.1373 10.0738C20.3076 9.95322 20.5078 9.88885 20.7127 9.88885C20.9875 9.88885 21.2511 10.0047 21.4455 10.2108C21.6399 10.4169 21.749 10.6965 21.749 10.9881V10.992ZM19.6763 8.78964C19.677 9.00721 19.6169 9.22012 19.5034 9.40141C19.39 9.5827 19.2284 9.7242 19.0391 9.80801C18.8498 9.89182 18.6413 9.91416 18.44 9.87219C18.2387 9.83023 18.0537 9.72586 17.9084 9.57229C17.7631 9.41873 17.664 9.22287 17.6237 9.00954C17.5834 8.79621 17.6037 8.57499 17.682 8.37391C17.7604 8.17282 17.8932 8.00091 18.0637 7.87995C18.2342 7.75899 18.4348 7.69443 18.6399 7.69442C18.9141 7.69442 19.1771 7.80968 19.3714 8.01496C19.5657 8.22024 19.6753 8.49881 19.6763 8.78964ZM23.8218 8.78964C23.8226 9.00721 23.7624 9.22012 23.649 9.40141C23.5356 9.5827 23.374 9.7242 23.1846 9.80801C22.9953 9.89182 22.7868 9.91416 22.5856 9.87219C22.3843 9.83023 22.1993 9.72586 22.0539 9.57229C21.9086 9.41873 21.8095 9.22287 21.7692 9.00954C21.7289 8.79621 21.7493 8.57499 21.8276 8.37391C21.9059 8.17282 22.0387 8.00091 22.2093 7.87995C22.3798 7.75899 22.5803 7.69443 22.7854 7.69442C23.0596 7.69442 23.3227 7.80968 23.5169 8.01496C23.7112 8.22024 23.8208 8.49881 23.8218 8.78964Z" fill="#FF9800"/>
</g>
<defs>
<clipPath id="clip0_1_1162">
<rect width="29" height="22" fill="white"/>
</clipPath>
</defs>
</svg>
