<svg width="28" height="28" viewBox="0 0 28 28" fill="none" xmlns="http://www.w3.org/2000/svg">
<path d="M13.9979 28C21.7299 28 27.9979 21.732 27.9979 14C27.9979 6.26803 21.7299 0 13.9979 0C6.26596 0 -0.0020752 6.26803 -0.0020752 14C-0.0020752 21.732 6.26596 28 13.9979 28ZM2.33126 14C2.33126 7.55673 7.55466 2.33333 13.9979 2.33333C20.4412 2.33333 25.6646 7.55673 25.6646 14C25.6646 20.4433 20.4412 25.6667 13.9979 25.6667C7.55466 25.6667 2.33126 20.4433 2.33126 14ZM16.165 19.2331L13.0252 14L16.165 8.76692C16.4965 8.21438 16.3174 7.49782 15.7648 7.16625C15.2123 6.8348 14.4957 7.01388 14.1642 7.56642L10.6642 13.3998C10.5554 13.5811 10.4979 13.7885 10.4979 14C10.4979 14.2115 10.5554 14.4189 10.6642 14.6003L14.1642 20.4336C14.4957 20.9861 15.2123 21.1652 15.7648 20.8338C16.3174 20.5022 16.4965 19.7856 16.165 19.2331Z" fill="#FF9800"/>
</svg>
