<svg width="22" height="22" viewBox="0 0 22 22" fill="none" xmlns="http://www.w3.org/2000/svg">
<g clip-path="url(#clip0_1_1151)">
<path d="M20.1661 0H1.83385C1.34748 0 0.881036 0.244028 0.537122 0.6784C0.193209 1.11277 0 1.70191 0 2.3162L0 19.6799C0 20.2942 0.193209 20.8833 0.537122 21.3177C0.881036 21.7521 1.34748 21.9961 1.83385 21.9961H20.1661C20.6525 21.9961 21.119 21.7521 21.4629 21.3177C21.8068 20.8833 22 20.2942 22 19.6799V2.30838C21.9984 1.69544 21.8044 1.10831 21.4607 0.675631C21.117 0.24295 20.6514 -3.49786e-06 20.1661 0ZM11.9169 15.5326L15.2036 19.6799H11.9169V15.5326ZM11.9169 2.3162H13.8282L20.1661 10.3212V15.1492L11.9169 4.73413V2.3162ZM20.1661 7.04642L16.421 2.31229H20.1661V7.04642ZM1.83075 2.31229H10.0831V19.6838H1.83385L1.83075 2.31229ZM17.7964 19.6838L11.9169 12.2579V8.00498L20.1661 18.424V19.6838H17.7964Z" fill="#FF9800"/>
<path d="M5.49848 15.0514H4.58465C4.34147 15.0514 4.10824 15.1734 3.93629 15.3906C3.76433 15.6078 3.66772 15.9024 3.66772 16.2095C3.66772 16.5166 3.76433 16.8112 3.93629 17.0284C4.10824 17.2456 4.34147 17.3676 4.58465 17.3676H5.49848C5.74166 17.3676 5.97488 17.2456 6.14684 17.0284C6.3188 16.8112 6.4154 16.5166 6.4154 16.2095C6.4154 15.9024 6.3188 15.6078 6.14684 15.3906C5.97488 15.1734 5.74166 15.0514 5.49848 15.0514Z" fill="#FF9800"/>
</g>
<defs>
<clipPath id="clip0_1_1151">
<rect width="22" height="22" fill="white"/>
</clipPath>
</defs>
</svg>
