<svg width="22" height="22" viewBox="0 0 22 22" fill="none" xmlns="http://www.w3.org/2000/svg">
<g clip-path="url(#clip0_1_1142)">
<path fill-rule="evenodd" clip-rule="evenodd" d="M11.0018 8.00065C10.409 8.00065 9.82943 8.17645 9.33648 8.50583C8.84353 8.83521 8.45933 9.30336 8.23245 9.8511C8.00557 10.3988 7.94621 11.0015 8.06187 11.583C8.17753 12.1645 8.46302 12.6986 8.88224 13.1178C9.30146 13.537 9.83557 13.8225 10.417 13.9382C10.9985 14.0538 11.6012 13.9945 12.149 13.7676C12.6967 13.5407 13.1648 13.1565 13.4942 12.6636C13.8236 12.1706 13.9994 11.5911 13.9994 10.9982C13.9994 10.2032 13.6836 9.44077 13.1214 8.87862C12.5593 8.31646 11.7968 8.00065 11.0018 8.00065ZM10.0027 10.9982C10.0027 11.1958 10.0613 11.389 10.171 11.5533C10.2808 11.7177 10.4369 11.8457 10.6195 11.9213C10.802 11.997 11.0029 12.0168 11.1968 11.9782C11.3906 11.9397 11.5686 11.8445 11.7084 11.7047C11.8481 11.565 11.9433 11.387 11.9818 11.1931C12.0204 10.9993 12.0006 10.7984 11.925 10.6158C11.8493 10.4333 11.7213 10.2772 11.557 10.1674C11.3926 10.0576 11.1995 9.99903 11.0018 9.99903C10.8703 9.99856 10.74 10.0241 10.6184 10.0741C10.4967 10.1241 10.3862 10.1976 10.293 10.2904C10.1998 10.3832 10.1259 10.4936 10.0755 10.615C10.025 10.7365 9.99908 10.8667 9.99908 10.9982H10.0027Z" fill="#FF9800"/>
<path d="M3.99671 11.0018C3.99624 10.0814 4.17722 9.17003 4.52932 8.31969C4.88141 7.46936 5.3977 6.69679 6.04865 6.04617C6.69959 5.39555 7.47243 4.87966 8.32294 4.528C9.17346 4.17634 10.085 3.99582 11.0053 3.99675V5.99513C10.3473 5.99372 9.6954 6.12223 9.08713 6.3733C8.47886 6.62436 7.92614 6.99304 7.46066 7.45818C6.99519 7.92333 6.62611 8.47579 6.37462 9.08388C6.12312 9.69198 5.99414 10.3437 5.99508 11.0018H3.99671ZM11.0017 16.0013C12.3271 16.0003 13.5978 15.4732 14.5346 14.5357C15.4714 13.5982 15.9977 12.3271 15.9977 11.0018H17.9961C17.9951 12.8568 17.258 14.6357 15.9466 15.9477C14.6353 17.2598 12.8568 17.9978 11.0017 17.9997V16.0013Z" fill="#FF9800"/>
<path fill-rule="evenodd" clip-rule="evenodd" d="M11.0018 5.79011e-07C8.82572 -0.000705259 6.69829 0.643938 4.88858 1.8524C3.07888 3.06086 1.6682 4.77886 0.83495 6.78911C0.00170423 8.79936 -0.216677 11.0116 0.207426 13.1459C0.631529 15.2803 1.67907 17.241 3.21755 18.78C4.75604 20.3189 6.71636 21.3671 8.85059 21.7919C10.9848 22.2167 13.1971 21.999 15.2076 21.1664C17.2181 20.3339 18.9366 18.9237 20.1456 17.1144C21.3547 15.3051 22 13.1779 22 11.0018C22.0005 9.55718 21.7164 8.12663 21.1639 6.79185C20.6114 5.45708 19.8013 4.24422 18.78 3.22256C17.7587 2.20091 16.5461 1.39047 15.2115 0.837531C13.8769 0.284596 12.4464 5.02969e-07 11.0018 5.79011e-07ZM1.99841 11.0018C1.99912 12.7815 2.52746 14.521 3.51664 16.0005C4.50583 17.4799 5.91145 18.6329 7.55581 19.3137C9.20017 19.9944 11.0094 20.1723 12.7549 19.8249C14.5004 19.4776 16.1037 18.6205 17.3621 17.3621C18.6205 16.1036 19.4776 14.5003 19.825 12.7549C20.1724 11.0094 19.9944 9.20013 19.3137 7.55578C18.633 5.91142 17.48 4.5058 16.0005 3.51661C14.521 2.52743 12.7815 1.99908 11.0018 1.99838C9.81934 1.99791 8.64836 2.23047 7.55581 2.68277C6.46325 3.13506 5.47054 3.79823 4.6344 4.63437C3.79826 5.47051 3.1351 6.46322 2.6828 7.55578C2.2305 8.64833 1.99794 9.81931 1.99841 11.0018Z" fill="#FF9800"/>
</g>
<defs>
<clipPath id="clip0_1_1142">
<rect width="22" height="22" fill="white"/>
</clipPath>
</defs>
</svg>
