<svg width="31" height="24" viewBox="0 0 31 24" fill="none" xmlns="http://www.w3.org/2000/svg">
<g clip-path="url(#clip0_1_1045)">
<path d="M25.898 1.99001C23.9518 1.05424 21.8989 0.385397 19.79 -1.83799e-05C19.7719 -0.0021642 19.7536 0.00150268 19.7375 0.0104978C19.7215 0.019493 19.7084 0.0333932 19.7 0.0503621C19.417 0.588189 19.1606 1.14101 18.932 1.70662C16.6588 1.34762 14.3472 1.34762 12.074 1.70662C11.8457 1.13981 11.5872 0.586854 11.3 0.0503621C11.2913 0.0322571 11.2772 0.0175817 11.2599 0.00850803C11.2426 -0.000565612 11.223 -0.00355525 11.204 -1.83799e-05C9.09439 0.382507 7.04116 1.05146 5.096 1.99001C5.07807 1.9968 5.06313 2.01024 5.054 2.0278C1.57455 7.2569 0.00290561 13.625 0.625999 19.9695C0.626886 19.9831 0.630563 19.9964 0.636777 20.0083C0.642991 20.0203 0.651595 20.0307 0.661999 20.0388C2.92708 21.8001 5.46127 23.1439 8.156 24.0126C8.17128 24.0226 8.18896 24.028 8.207 24.028C8.22504 24.028 8.24272 24.0226 8.258 24.0126C8.8358 23.1837 9.34944 22.3077 9.794 21.3928C9.80475 21.3794 9.812 21.3634 9.81505 21.3462C9.8181 21.329 9.81684 21.3113 9.81139 21.2948C9.80595 21.2783 9.7965 21.2635 9.78398 21.252C9.77147 21.2405 9.75631 21.2326 9.74 21.2291C8.93072 20.9066 8.14808 20.5148 7.4 20.0577C7.38629 20.0494 7.3749 20.0375 7.36699 20.0231C7.35907 20.0088 7.3549 19.9924 7.3549 19.9758C7.3549 19.9592 7.35907 19.9429 7.36699 19.9286C7.3749 19.9142 7.38629 19.9023 7.4 19.894C7.562 19.768 7.718 19.6421 7.868 19.5098C7.88208 19.4995 7.89884 19.494 7.916 19.494C7.93316 19.494 7.94991 19.4995 7.964 19.5098C10.3236 20.67 12.8974 21.2713 15.503 21.2713C18.1086 21.2713 20.6824 20.67 23.042 19.5098C23.0561 19.4995 23.0728 19.494 23.09 19.494C23.1072 19.494 23.1239 19.4995 23.138 19.5098C23.288 19.6358 23.444 19.768 23.606 19.894C23.6197 19.9023 23.6311 19.9142 23.639 19.9286C23.6469 19.9429 23.6511 19.9592 23.6511 19.9758C23.6511 19.9924 23.6469 20.0088 23.639 20.0231C23.6311 20.0375 23.6197 20.0494 23.606 20.0577C22.8521 20.5198 22.0611 20.9118 21.242 21.2291C21.2292 21.2336 21.2176 21.2411 21.208 21.251C21.1983 21.2609 21.1909 21.2729 21.1863 21.2862C21.1817 21.2995 21.18 21.3138 21.1813 21.3278C21.1827 21.3419 21.187 21.3555 21.194 21.3676C21.6352 22.2678 22.1385 23.1329 22.7 23.9559C22.7108 23.9729 22.7266 23.9859 22.745 23.9927C22.7634 23.9995 22.7834 23.9998 22.802 23.9937C25.5015 23.1279 28.0401 21.784 30.308 20.0199C30.3191 20.0125 30.3282 20.0023 30.3345 19.9901C30.3408 19.978 30.344 19.9644 30.344 19.9507C30.987 13.6132 29.4203 7.24591 25.934 2.0278C25.9268 2.01102 25.914 1.99758 25.898 1.99001ZM10.526 16.3736C9.77315 16.3233 9.06901 15.9655 8.56436 15.377C8.05971 14.7885 7.79467 14.016 7.826 13.2249C7.79155 12.4329 8.05551 11.6586 8.56078 11.0693C9.06606 10.4801 9.77203 10.1232 10.526 10.0761C10.8999 10.097 11.2662 10.1951 11.604 10.3647C11.9418 10.5343 12.2445 10.7721 12.4947 11.0645C12.7449 11.357 12.9377 11.6983 13.0621 12.0689C13.1866 12.4396 13.2402 12.8324 13.22 13.2249C13.2561 14.0162 12.9935 14.7906 12.4892 15.38C11.9848 15.9695 11.2795 16.3265 10.526 16.3736ZM20.492 16.3736C19.7402 16.3217 19.0376 15.9633 18.5342 15.3749C18.0308 14.7866 17.7666 14.0149 17.798 13.2249C17.7619 12.4335 18.0245 11.6592 18.5288 11.0697C19.0332 10.4803 19.7385 10.1232 20.492 10.0761C20.8664 10.0962 21.2334 10.1937 21.5719 10.363C21.9104 10.5322 22.2137 10.7699 22.4645 11.0624C22.7154 11.3549 22.9087 11.6965 23.0335 12.0676C23.1584 12.4386 23.2122 12.8319 23.192 13.2249C23.2296 14.0176 22.9668 14.7938 22.4609 15.3838C21.9549 15.9738 21.2471 16.3297 20.492 16.3736Z" fill="#F4F4F4"/>
</g>
<defs>
<clipPath id="clip0_1_1045">
<rect width="30" height="24" fill="white" transform="translate(0.5)"/>
</clipPath>
</defs>
</svg>
