<svg width="25" height="28" viewBox="0 0 25 28" fill="none" xmlns="http://www.w3.org/2000/svg">
<g clip-path="url(#clip0_2_106)">
<path d="M22.7167 0.57547H2.26514C0.616694 0.57547 0.000793457 1.14566 0.000793457 2.68013V21.2028C0.000793457 21.3789 0.00985082 21.5382 0.0279656 21.6891C0.064195 22.0245 0.0732524 22.3516 0.408375 22.7205C0.444604 22.754 0.788784 22.9972 0.788784 22.9972C0.969932 23.0811 1.09673 23.1398 1.30505 23.2236L11.3678 27.1311C11.8931 27.3491 12.1105 27.4413 12.4909 27.4329C12.8713 27.4413 13.0887 27.3575 13.614 27.1311L23.6768 23.2236C23.8851 23.1481 24.0119 23.0811 24.193 22.9972C24.193 22.9972 24.5372 22.7624 24.5734 22.7205C24.9086 22.3516 24.9176 22.0245 24.9538 21.6891C24.972 21.5382 24.981 21.3789 24.981 21.2028V2.68013C24.981 1.14566 24.3742 0.57547 22.7167 0.57547Z" fill="#F4F4F4"/>
<path d="M21.34 19.1987L21.331 19.2407L21.3219 19.291L21.3128 19.3329L21.2947 19.3748L21.2857 19.4168L21.2676 19.4587L21.2494 19.5006L21.2313 19.5341L21.2132 19.5761L21.186 19.6096L21.1589 19.6432L21.1317 19.6767L21.1045 19.7102L21.0774 19.7438L21.0411 19.7773L21.014 19.8025L20.9777 19.836L20.9415 19.8612L20.9053 19.8863L20.869 19.9031L20.8328 19.9282L20.7875 19.9534L20.7422 19.9702L20.6969 19.9953L20.6517 20.0121L20.6064 20.0289L20.5611 20.0456V20.0373L20.5158 20.054L20.4705 20.0624L20.389 20.0792L20.3437 20.0876L20.2984 20.0959L20.2531 20.1043L20.2078 20.1127L20.1535 20.1211L20.1082 20.1295H19.9271L19.8818 20.1211H19.8274L19.7821 20.1127L19.7369 20.1043L19.6825 20.0959L19.6372 20.0876L19.5919 20.0792L19.5467 20.0708L19.5014 20.0624L19.4561 20.054L19.4108 20.0456L19.3655 20.0289L19.3202 20.0205L19.2749 20.0037L19.2296 19.9869L19.1844 19.9702L19.1391 19.9534L19.0938 19.9366L19.0485 19.9199L19.0032 19.9031L18.9579 19.8863L18.9126 19.8696L18.8674 19.8528L18.8221 19.8276L18.7858 19.8025L18.7406 19.7773L18.7043 19.7522L18.6681 19.727L18.6319 19.7019L18.5956 19.6767L18.5594 19.6515L18.5232 19.6264L18.4869 19.6012L18.4507 19.5677L18.4779 19.5341L18.5141 19.5006L18.5413 19.4671L18.5775 19.4335L18.6047 19.4L18.6319 19.3664L18.6681 19.3329L18.6953 19.2994L18.7315 19.2658L18.7587 19.2323L18.7949 19.1987L18.8221 19.1652L18.8492 19.1317L18.8855 19.0981L18.9126 19.0646L18.9489 19.031L18.976 18.9975L19.0123 19.0227L19.0576 19.0478L19.0938 19.073L19.1391 19.0981L19.1753 19.1233L19.2206 19.1484L19.2568 19.1736L19.3021 19.1904L19.3383 19.2155L19.3836 19.2323L19.4289 19.2491L19.4742 19.2658L19.5195 19.2826L19.5648 19.2994L19.6101 19.3161L19.6553 19.3329L19.7006 19.3497L19.7459 19.3581L19.8365 19.3748L19.8908 19.3832L19.9361 19.3916H19.9814L20.0358 19.4H20.1354L20.1897 19.3916L20.235 19.3832L20.2803 19.3748L20.3256 19.3664L20.3618 19.3497L20.398 19.3329L20.4343 19.3078L20.4615 19.2742L20.4796 19.2407L20.4977 19.1987L20.5067 19.1568V19.1484L20.4977 19.0981L20.4796 19.0562L20.4524 19.0227L20.4162 18.9975L20.3799 18.9723L20.3437 18.9556L20.2984 18.9388L20.2531 18.922L20.1988 18.8969L20.1626 18.8885L20.1263 18.8801L20.081 18.8633L20.0358 18.855L19.9905 18.8382L19.9452 18.8298L19.8908 18.813L19.8456 18.8046L19.7912 18.7879L19.7459 18.7795L19.7006 18.7627L19.6553 18.7543L19.6101 18.7376L19.5648 18.7208L19.5195 18.7124L19.4742 18.6956L19.4289 18.6789L19.3836 18.6621L19.3293 18.6453L19.284 18.6286L19.2387 18.6118L19.1934 18.595L19.1481 18.5699L19.1028 18.5447L19.0666 18.5196L19.0213 18.4944L18.9851 18.4692L18.9489 18.4441L18.9126 18.4189L18.8764 18.3854L18.8402 18.3519L18.813 18.3183L18.7858 18.2848L18.7587 18.2512L18.7315 18.2177L18.7043 18.1758L18.6862 18.1422L18.6681 18.1087L18.659 18.0668L18.6409 18.0332L18.6319 17.9913L18.6228 17.9494L18.6137 17.9074L18.6047 17.8655L18.5956 17.8152V17.7146L18.6047 17.6727L18.6137 17.6307L18.6228 17.5888L18.6319 17.5469L18.6409 17.505L18.659 17.463L18.6681 17.4211L18.6862 17.3792L18.7043 17.3373L18.7224 17.2953L18.7496 17.2534L18.7768 17.2115L18.804 17.1779L18.8311 17.1444L18.8674 17.1109L18.9036 17.0773L18.9398 17.0438L18.976 17.0102L19.0123 16.9851L19.0485 16.9599L19.0847 16.9348L19.121 16.9096L19.1662 16.8845L19.2115 16.8677L19.2568 16.8425L19.3021 16.8258L19.3474 16.809L19.3927 16.7922L19.438 16.7755L19.4742 16.7671L19.5195 16.7587L19.5648 16.7503L19.6101 16.7419L19.6553 16.7335L19.7006 16.7251L19.7459 16.7168L19.7912 16.7084L19.8365 16.7H20.0358L20.0901 16.7084L20.1444 16.7168H20.1897L20.2441 16.7251L20.2894 16.7335L20.3437 16.7419L20.389 16.7503L20.4343 16.7587L20.4796 16.7671L20.5249 16.7755L20.5701 16.7838L20.6154 16.8006L20.6607 16.8174L20.706 16.8258L20.7513 16.8425L20.7966 16.8593L20.8419 16.8761L20.8871 16.8928L20.9324 16.9096L20.9777 16.9348L21.014 16.9515L21.0592 16.9767L21.1045 17.0019L21.1408 17.027L21.186 17.0522L21.2223 17.0773L21.2585 17.1025L21.2947 17.1276L21.331 17.1528L21.3038 17.1863L21.2766 17.2199L21.2494 17.2534L21.2223 17.2869L21.1951 17.3289L21.1679 17.3624L21.1408 17.396L21.1136 17.4295L21.0864 17.463L21.0592 17.4966L21.0321 17.5301L21.0049 17.5637L20.9777 17.6056L20.9505 17.6391L20.9234 17.6727L20.8328 17.8571L20.8056 17.8907L20.7694 17.8655L20.7241 17.8404L20.6879 17.8152L20.6517 17.79L20.6064 17.7733L20.5701 17.7481L20.5249 17.7314L20.4886 17.7146L20.4433 17.6978L20.4071 17.681L20.3618 17.6643L20.3256 17.6475L20.2712 17.6307L20.226 17.614L20.1807 17.5972L20.1354 17.5888L20.1082 17.6056L20.0629 17.5972L20.0176 17.5888L19.9724 17.5804L19.9271 17.572H19.8274L19.7731 17.5804L19.7278 17.5888L19.6825 17.5972L19.6463 17.614L19.6101 17.6307L19.5648 17.6643L19.5376 17.7062L19.5195 17.7481L19.5104 17.79V17.7984L19.5195 17.8571L19.5376 17.9074L19.5557 17.9326L19.5919 17.9661L19.6372 17.9913L19.6735 18.0164L19.7187 18.0332L19.7731 18.05L19.8274 18.0668L19.8637 18.0751L19.8999 18.0919L19.9452 18.1003L19.9905 18.1171L20.0358 18.1255L20.0901 18.1422L20.1444 18.159L20.1988 18.1758L20.2531 18.1841L20.2984 18.2009L20.3528 18.2177L20.398 18.2261L20.4433 18.2428L20.4886 18.2596L20.5339 18.2764L20.5792 18.2932L20.6245 18.3099L20.6698 18.3183L20.7241 18.3351L20.7694 18.3602L20.8147 18.377L20.86 18.4022L20.9053 18.4273L20.9505 18.4525L20.9868 18.4776L21.023 18.5028L21.0592 18.5279L21.0955 18.5615L21.1317 18.595L21.1679 18.6286L21.2042 18.6621L21.2313 18.6956L21.2585 18.7376L21.2857 18.7711L21.3128 18.813L21.331 18.8466L21.3491 18.8885L21.3581 18.9304L21.3672 18.9723L21.3853 19.0562L21.3944 19.0981L21.4034 19.1484V19.2491L21.34 19.1987ZM18.1247 20.054H15.489V16.9432H18.1428V17.6475H16.3675V18.159H17.9616V18.8214H16.3675V19.3497H18.1699V20.054H18.1247ZM14.7644 20.054H13.922V18.2177L13.8949 18.2512L13.8677 18.2932L13.8405 18.3267L13.8133 18.3602L13.7862 18.4022L13.759 18.4357L13.7318 18.4692L13.7047 18.5112L13.6775 18.5447L13.6503 18.5782L13.6231 18.6118L13.596 18.6537L13.5688 18.6873L13.5416 18.7208L13.5144 18.7627L13.4873 18.7963L13.4601 18.8298L13.4329 18.8717L13.4148 18.9053L13.3876 18.9388L13.3605 18.9807L13.3333 19.0143L13.3061 19.0478L13.279 19.0897L13.2518 19.1233L13.2337 19.1568L13.2065 19.1904L13.1793 19.2323L13.1522 19.2658L13.125 19.2994L13.1069 19.3413L13.0797 19.3748L13.0525 19.4084L13.0254 19.4503L12.9982 19.4838H12.9801L12.9529 19.4419L12.9257 19.4084L12.8985 19.3664L12.8714 19.3329L12.8442 19.291L12.817 19.2574L12.7899 19.2155L12.7627 19.182L12.7355 19.14L12.7174 19.1065L12.6902 19.0646L12.6631 19.031L12.6359 18.9891L12.6812 18.9472L12.654 18.9053L12.6268 18.8717L12.5997 18.8298L12.5725 18.7963L12.5453 18.7543L12.5181 18.7208L12.5 18.6956L12.4729 18.6621L12.4457 18.6202L12.4185 18.5866L12.3913 18.5447L12.3642 18.5112L12.337 18.4692L12.3189 18.4441L12.2917 18.4022L12.2645 18.3686L12.2374 18.3267L12.2102 18.2932L12.183 18.2512L12.1558 18.2177V20.0456H11.2863V16.9348H12.2283L12.2555 16.9683L12.2826 17.0102L12.3098 17.0438L12.337 17.0857L12.3642 17.1192L12.3913 17.1612L12.4185 17.1947L12.4457 17.2366L12.4729 17.2702L12.5 17.3037L12.5272 17.3456L12.5544 17.3792L12.5815 17.4211L12.6087 17.4546L12.6359 17.4966L12.6631 17.5301L12.6902 17.5637L12.7174 17.6056L12.7446 17.6391L12.7717 17.681L12.7989 17.7146L12.8261 17.7565L12.8533 17.79L12.8714 17.832L12.8985 17.8655L12.9167 17.8991L12.9438 17.941L12.971 17.9745L12.9982 18.0164L13.0254 18.05L13.0435 18.0919L13.0706 18.1255L13.0978 18.1674L13.125 18.2009L13.1522 18.1674L13.1793 18.1255L13.2065 18.0919L13.2337 18.05L13.2608 18.0164L13.288 17.9745L13.3152 17.941L13.3424 17.8991L13.3695 17.8655L13.3876 17.832L13.4148 17.79L13.442 17.7565L13.4692 17.7146L13.4963 17.681L13.5235 17.6391L13.5507 17.6056L13.5778 17.5637L13.605 17.5301L13.6322 17.4966L13.6594 17.4546L13.6865 17.4211L13.7137 17.3792L13.7409 17.3456L13.7681 17.3037L13.7862 17.2702L13.8133 17.2366L13.8405 17.1947L13.8677 17.1612L13.8949 17.1192L13.922 17.0857L13.9492 17.0438L13.9764 17.0102L14.0035 16.9683L14.0307 16.9348H14.9727V20.0456L14.7644 20.054ZM9.43863 18.7711L9.42052 18.7292L9.4024 18.6873L9.38429 18.6453L9.36617 18.6034L9.34806 18.5615L9.32994 18.5196L9.31183 18.4776L9.29371 18.4357L9.2756 18.3938L9.25748 18.3519L9.23937 18.3099L9.22126 18.268L9.20314 18.2261L9.18503 18.1841L9.16691 18.1422L9.1488 18.1003L9.13068 18.0584L9.11257 18.0164L9.09445 17.9745L9.07634 17.9326L9.05822 17.8907L9.04011 17.8487L9.02199 17.8907L9.00388 17.9326L8.98576 17.9745L8.96765 18.0164L8.94953 18.0584L8.93142 18.1003L8.91331 18.1422L8.89519 18.1841L8.87708 18.2261L8.85896 18.268L8.84085 18.3099L8.82273 18.3519L8.80462 18.3938L8.7865 18.4357L8.76839 18.4776L8.75027 18.5196L8.73216 18.5615L8.71404 18.6034L8.69593 18.6453L8.67781 18.6873L8.6597 18.7292L8.64158 18.7711L8.62347 18.813H9.4024L9.43863 18.7711ZM10.8788 20.054H9.98207L9.96396 20.0121L9.94585 19.9702L9.92773 19.9282L9.90962 19.8863L9.8915 19.8444L9.87339 19.8025L9.85527 19.7605L9.83716 19.7186L9.81904 19.6767L9.80093 19.6348L9.78281 19.5928L9.7647 19.5509L9.74658 19.509L9.72847 19.4671L9.71035 19.4251H8.40609L8.38798 19.4671L8.36986 19.509L8.35175 19.5509L8.33363 19.5928L8.31552 19.6348L8.27929 19.7102L8.26117 19.7522L8.24306 19.7941L8.22495 19.836L8.20683 19.8779L8.18872 19.9199L8.1706 19.9618L8.15249 20.0037L8.13437 20.0456H7.22864L7.24675 20.0037L7.28298 19.9282L7.30109 19.8863L7.31921 19.8444L7.35544 19.7689L7.37355 19.727L7.39167 19.6851L7.40978 19.6432L7.4279 19.618L7.44601 19.5761L7.46413 19.5341L7.48224 19.4922L7.50036 19.4503L7.51847 19.4084L7.53658 19.3664L7.5547 19.3245L7.57281 19.2826L7.59093 19.2407L7.60904 19.1987L7.62716 19.1568L7.66339 19.0814L7.6815 19.0394L7.69962 18.9975L7.71773 18.9556L7.73585 18.9137L7.75396 18.8717L7.77208 18.8298L7.79019 18.7879L7.80831 18.746L7.82642 18.704L7.84454 18.6621L7.86265 18.6202L7.88076 18.5782L7.89888 18.5363L7.917 18.4944L7.93511 18.4525L7.95322 18.4105L7.97134 18.3686L7.98945 18.3267L8.00757 18.2848L8.02568 18.2428L8.0438 18.2009L8.06191 18.159L8.08003 18.1171L8.09814 18.0751L8.11626 18.0332L8.13437 17.9913L8.15249 17.9494L8.1706 17.9074L8.18872 17.8655L8.20683 17.8236L8.22495 17.7817L8.24306 17.7397L8.27929 17.6643L8.2974 17.6223L8.31552 17.5804L8.33363 17.5385L8.35175 17.4966L8.36986 17.4546L8.38798 17.4127L8.40609 17.3708L8.42421 17.3289L8.44232 17.2869L8.46044 17.245L8.46949 17.2031L8.48761 17.1612L8.50572 17.1192L8.52384 17.0773L8.54195 17.0354L8.56007 16.9935L8.57818 16.9515L8.5963 16.9096L8.61441 16.8677L8.65064 16.7922L8.66876 16.7503H9.52015L9.53826 16.7922L9.55638 16.8341L9.57449 16.8761L9.59261 16.918L9.61072 16.9599L9.62884 17.0019L9.64695 17.0438L9.66507 17.0857L9.68318 17.1276L9.7013 17.1696L9.71941 17.2115L9.73753 17.2534L9.75564 17.2953L9.77376 17.3373L9.79187 17.3792L9.80999 17.4211L9.8281 17.463L9.84621 17.505L9.86433 17.5469L9.88244 17.5888L9.90056 17.6307L9.91867 17.6727L9.93679 17.7146L9.9549 17.7565L9.97302 17.7984L9.99113 17.8404L10.0092 17.8823L10.0274 17.9242L10.0455 17.9661L10.0636 18.0081L10.0998 18.0835L10.1179 18.1255L10.1361 18.1674L10.1542 18.2093L10.1723 18.2512L10.1904 18.2932L10.2085 18.3351L10.2266 18.377L10.2447 18.4189L10.2629 18.4609L10.281 18.5028L10.2991 18.5447L10.3172 18.5866L10.3353 18.6286L10.3534 18.6705L10.3715 18.7124L10.3897 18.7543L10.4078 18.7963L10.4259 18.8382L10.444 18.8801L10.4621 18.922L10.4802 18.964L10.4983 19.0059L10.5165 19.0478L10.5346 19.0897L10.5527 19.1317L10.5708 19.1736L10.5889 19.2155L10.607 19.2574L10.6251 19.2994L10.6433 19.3413L10.6614 19.3832L10.6795 19.4251L10.6976 19.4671L10.7157 19.509L10.7338 19.5509L10.752 19.5928L10.7701 19.6348L10.7882 19.6767L10.8063 19.7186L10.8244 19.7605L10.8425 19.8025L10.8606 19.8444L10.8788 19.8863L10.8969 19.9282L10.915 19.9702L10.9331 20.0121L10.9693 20.0876L10.8788 20.054ZM6.85728 19.6515L6.82105 19.6767L6.78482 19.7019L6.74859 19.727L6.71236 19.7522L6.67613 19.7773L6.63991 19.8025L6.60368 19.8276L6.55839 19.8528L6.5131 19.8779L6.46782 19.9031L6.42253 19.9199L6.37724 19.945L6.33196 19.9618L6.28667 19.9786L6.24138 19.9953L6.19609 20.0121L6.15081 20.0289L6.10552 20.0456L6.06023 20.0624L6.01495 20.0792L5.96966 20.0959L5.92437 20.1043L5.87909 20.1127L5.8338 20.1211L5.78851 20.1295L5.74323 20.1379L5.68888 20.1463L5.6436 20.1546L5.58925 20.163L5.54396 20.1714L5.48962 20.1798H5.3447L5.29942 20.1714L5.24507 20.163L5.19978 20.1546L5.1545 20.1463L5.10921 20.1379L5.06392 20.1295L5.01864 20.1211L4.97335 20.1127L4.92806 20.1043L4.88278 20.0959L4.83749 20.0876L4.7922 20.0708L4.74692 20.054L4.70163 20.0373L4.65634 20.0205L4.61106 20.0037L4.56577 19.9869L4.52048 19.9702L4.47519 19.945L4.43897 19.9282L4.39368 19.9031L4.35745 19.8779L4.32122 19.8528L4.28499 19.8276L4.24876 19.8025L4.21253 19.7773L4.1763 19.7522L4.14007 19.727L4.10384 19.6935L4.06761 19.6683L4.03138 19.6348L3.99515 19.6012L3.96798 19.5677L3.94081 19.5341L3.91364 19.5006L3.88647 19.4671L3.85929 19.4335L3.83212 19.4L3.81401 19.3664L3.78683 19.3245L3.75966 19.291L3.74155 19.2491L3.72343 19.2071L3.70532 19.1652L3.6872 19.1233L3.66909 19.0897L3.65097 19.0478L3.64192 19.0059L3.6238 18.964L3.61474 18.922L3.59663 18.8801L3.58757 18.8382V18.7963L3.57852 18.7543V18.7124L3.56946 18.6705V18.3099L3.57852 18.2596L3.58757 18.2177L3.59663 18.1758L3.60569 18.1338L3.6238 18.0919L3.63286 18.05L3.65097 18.0081L3.66909 17.9661L3.6872 17.9242L3.70532 17.8823L3.72343 17.8404L3.74155 17.7984L3.75966 17.7565L3.77778 17.7146L3.80495 17.6727L3.83212 17.6391L3.85024 17.6056L3.87741 17.572L3.90458 17.5385L3.93175 17.505L3.95892 17.4714L3.9861 17.4379L4.01327 17.4043L4.0495 17.3708L4.07667 17.3373L4.1129 17.3037L4.14913 17.2702L4.18536 17.245L4.22159 17.2115L4.25782 17.1863L4.29405 17.1612L4.33028 17.136L4.36651 17.1109L4.40274 17.0857L4.43897 17.0605L4.48425 17.0354L4.52954 17.0102L4.57483 16.9851L4.62011 16.9683L4.6654 16.9515L4.71069 16.9264L4.74692 16.9096L4.7922 16.8928L4.83749 16.8761L4.88278 16.8677L4.92806 16.8509L4.97335 16.8425L5.01864 16.8258L5.06392 16.8174L5.10921 16.809L5.1545 16.8006L5.19978 16.7922L5.24507 16.7838L5.29036 16.7755L5.33564 16.7671H5.52585L5.58019 16.7755L5.63454 16.7838H5.67982L5.72511 16.7922L5.77946 16.8006L5.82474 16.809L5.87003 16.8174L5.91532 16.8258L5.9606 16.8341L6.00589 16.8425L6.05118 16.8509L6.09646 16.8677L6.14175 16.8761L6.17798 16.8928L6.22327 16.9096L6.30478 16.9432L6.35007 16.9599L6.39536 16.9851L6.44064 17.0019L6.47687 17.027L6.52216 17.0522L6.55839 17.0773L6.60368 17.1025L6.63991 17.1276L6.67613 17.1528L6.71236 17.1779L6.74859 17.2031L6.78482 17.2366L6.82105 17.2618L6.79388 17.2953L6.75765 17.3289L6.73048 17.3624L6.69425 17.396L6.66708 17.4295L6.63991 17.463L6.60368 17.4966L6.5765 17.5301L6.54933 17.5637L6.5131 17.5972L6.48593 17.6307L6.4497 17.6643L6.42253 17.6978L6.39536 17.7314L6.35913 17.7649L6.33196 17.7984L6.29573 17.832L6.26855 17.8655L6.23232 17.8404L6.19609 17.8068L6.15987 17.7817L6.12364 17.7565L6.08741 17.7314L6.05118 17.7062L6.01495 17.681L5.96966 17.6559L5.93343 17.6391L5.8972 17.6223L5.86097 17.6056L5.81569 17.5888L5.7704 17.572L5.72511 17.5637L5.67982 17.5553L5.63454 17.5469L5.58925 17.5385L5.53491 17.5301L5.48056 17.5217H5.38093L5.33564 17.5301L5.29036 17.5385L5.24507 17.5469L5.19978 17.5553L5.1545 17.572L5.10921 17.5888L5.07298 17.6894L5.02769 17.7062L4.99146 17.7314L4.95524 17.7565L4.91901 17.7817L4.88278 17.8068L4.84655 17.832L4.81032 17.8571L4.78315 17.8907L4.74692 17.9242L4.71974 17.9578L4.69257 17.9913L4.6654 18.0248L4.64728 18.0668L4.62011 18.1003L4.602 18.1422L4.58388 18.1841L4.56577 18.2261L4.54765 18.268L4.5386 18.3099L4.52954 18.3519L4.52048 18.4022V18.7124L4.52954 18.7543L4.5386 18.7963L4.54765 18.8382L4.56577 18.8801L4.62011 18.8633L4.63823 18.9053L4.65634 18.9472L4.68351 18.9891L4.7288 19.0562L4.75597 19.0897L4.78315 19.1233L4.81937 19.1568L4.84655 19.1904L4.88278 19.2155L4.91901 19.2407L4.95524 19.2658L4.99146 19.291L5.02769 19.3161L5.07298 19.3329L5.11827 19.3497L5.16355 19.3664L5.20884 19.3832L5.25413 19.4L5.29942 19.4084L5.3447 19.4168L5.38999 19.4251L5.44433 19.4335H5.52585L5.58019 19.4251L5.63454 19.4168L5.67982 19.4084L5.72511 19.4L5.7704 19.3916L5.81569 19.3832L5.86097 19.3748L5.90626 19.3581L5.94249 19.3413L5.98778 19.3245L6.024 19.3078L6.06023 19.2826V18.8633H5.38999V18.2428H6.88445V19.6348L6.85728 19.6515ZM5.38093 9.90806H7.37355V8.4826H5.38093V5.57297H7.45507V4.1475H3.6872V14.436H7.48224V13.0105H5.38093V9.90806ZM19.6372 10.2183V12.541C19.6372 12.9519 19.4289 13.1447 19.0032 13.1447H18.6862C18.2424 13.1447 18.0341 12.9519 18.0341 12.541V6.04253C18.0341 5.63166 18.2424 5.43881 18.6862 5.43881H18.967C19.3927 5.43881 19.601 5.63166 19.601 6.04253V8.05496H21.2585V5.9503C21.2585 4.67576 20.5973 4.05527 19.2206 4.05527H18.3964C17.0197 4.05527 16.3403 4.68415 16.3403 5.96707V12.6081C16.3403 13.891 17.0197 14.5199 18.3964 14.5199H19.2296C20.6064 14.5199 21.2857 13.891 21.2857 12.6081V10.2099H19.6372M13.7681 4.1475H15.4618V14.436H13.7681V4.1475ZM11.3135 8.71738C11.3135 9.12825 11.1052 9.32111 10.6795 9.32111H9.98207V5.53104H10.6795C11.1052 5.53104 11.3135 5.7239 11.3135 6.13477V8.71738ZM10.9512 4.1475H8.2974V14.436H9.99113V10.7046H10.9512C12.3279 10.7046 13.0072 10.0758 13.0072 8.79284V6.0593C13.0072 4.77639 12.3279 4.1475 10.9512 4.1475ZM7.67245 23.7351H17.3548L12.4185 25.2444L7.67245 23.7351Z" fill="#161618"/>
</g>
<defs>
<clipPath id="clip0_2_106">
<rect width="25" height="27" fill="white" transform="translate(0 0.5)"/>
</clipPath>
</defs>
</svg>
