<svg width="22" height="22" viewBox="0 0 22 22" fill="none" xmlns="http://www.w3.org/2000/svg">
<g clip-path="url(#clip0_1_1156)">
<path fill-rule="evenodd" clip-rule="evenodd" d="M11.0018 8.00065C10.4089 8.00065 9.82937 8.17645 9.33642 8.50583C8.84347 8.83521 8.45927 9.30336 8.23239 9.8511C8.00551 10.3988 7.94615 11.0015 8.06181 11.583C8.17747 12.1645 8.46296 12.6986 8.88218 13.1178C9.3014 13.537 9.83551 13.8225 10.417 13.9382C10.9985 14.0538 11.6012 13.9945 12.1489 13.7676C12.6966 13.5407 13.1648 13.1565 13.4942 12.6636C13.8235 12.1706 13.9993 11.5911 13.9993 10.9982C13.9993 10.2032 13.6835 9.44077 13.1214 8.87862C12.5592 8.31646 11.7968 8.00065 11.0018 8.00065ZM10.0026 10.9982C10.0026 11.1958 10.0612 11.389 10.171 11.5533C10.2808 11.7177 10.4368 11.8457 10.6194 11.9213C10.802 11.997 11.0029 12.0168 11.1967 11.9782C11.3905 11.9397 11.5686 11.8445 11.7083 11.7047C11.8481 11.565 11.9432 11.387 11.9818 11.1931C12.0203 10.9993 12.0005 10.7984 11.9249 10.6158C11.8493 10.4333 11.7212 10.2772 11.5569 10.1674C11.3926 10.0576 11.1994 9.99903 11.0018 9.99903C10.8703 9.99856 10.7399 10.0241 10.6183 10.0741C10.4967 10.1241 10.3861 10.1976 10.2929 10.2904C10.1998 10.3832 10.1259 10.4936 10.0754 10.615C10.025 10.7365 9.99902 10.8667 9.99902 10.9982H10.0026Z" fill="#FF9800"/>
<path d="M3.99677 11.0018C3.9963 10.0814 4.17728 9.17003 4.52938 8.31969C4.88147 7.46936 5.39776 6.69679 6.04871 6.04617C6.69966 5.39555 7.47249 4.87966 8.323 4.528C9.17352 4.17634 10.085 3.99582 11.0054 3.99675V5.99513C10.3473 5.99372 9.69547 6.12223 9.08719 6.3733C8.47892 6.62436 7.9262 6.99304 7.46072 7.45818C6.99525 7.92333 6.62618 8.47579 6.37468 9.08388C6.12318 9.69198 5.9942 10.3437 5.99514 11.0018H3.99677ZM11.0018 16.0013C12.3271 16.0003 13.5979 15.4732 14.5347 14.5357C15.4715 13.5982 15.9977 12.3271 15.9977 11.0018H17.9961C17.9952 12.8568 17.2581 14.6357 15.9467 15.9477C14.6353 17.2598 12.8568 17.9978 11.0018 17.9997V16.0013Z" fill="#FF9800"/>
<path fill-rule="evenodd" clip-rule="evenodd" d="M11.0018 5.79011e-07C8.82566 -0.000705259 6.69822 0.643938 4.88852 1.8524C3.07882 3.06086 1.66814 4.77886 0.834889 6.78911C0.0016432 8.79936 -0.216738 11.0116 0.207365 13.1459C0.631468 15.2803 1.67901 17.241 3.21749 18.78C4.75597 20.3189 6.7163 21.3671 8.85053 21.7919C10.9848 22.2167 13.197 21.999 15.2076 21.1664C17.2181 20.3339 18.9365 18.9237 20.1456 17.1144C21.3546 15.3051 22 13.1779 22 11.0018C22.0004 9.55718 21.7163 8.12663 21.1638 6.79185C20.6113 5.45708 19.8013 4.24422 18.7799 3.22256C17.7586 2.20091 16.546 1.39047 15.2114 0.837531C13.8768 0.284596 12.4464 5.02969e-07 11.0018 5.79011e-07ZM1.99835 11.0018C1.99906 12.7815 2.5274 14.521 3.51658 16.0005C4.50577 17.4799 5.91139 18.6329 7.55575 19.3137C9.20011 19.9944 11.0094 20.1723 12.7548 19.8249C14.5003 19.4776 16.1036 18.6205 17.362 17.3621C18.6205 16.1036 19.4775 14.5003 19.8249 12.7549C20.1723 11.0094 19.9944 9.20013 19.3136 7.55578C18.6329 5.91142 17.4799 4.5058 16.0005 3.51661C14.521 2.52743 12.7815 1.99908 11.0018 1.99838C9.81928 1.99791 8.6483 2.23047 7.55575 2.68277C6.46319 3.13506 5.47048 3.79823 4.63434 4.63437C3.7982 5.47051 3.13504 6.46322 2.68274 7.55578C2.23044 8.64833 1.99788 9.81931 1.99835 11.0018Z" fill="#FF9800"/>
</g>
<defs>
<clipPath id="clip0_1_1156">
<rect width="22" height="22" fill="white"/>
</clipPath>
</defs>
</svg>
