<svg width="25" height="24" viewBox="0 0 25 24" fill="none" xmlns="http://www.w3.org/2000/svg">
<g clip-path="url(#clip0_1_1041)">
<path d="M12.5 0C9.24 0 8.833 0.015 7.553 0.072C6.275 0.132 5.405 0.333 4.64 0.63C3.851 0.936 3.181 1.347 2.514 2.014C1.847 2.681 1.435 3.35 1.13 4.14C0.833 4.905 0.631 5.775 0.572 7.053C0.512 8.333 0.5 8.74 0.5 12C0.5 15.26 0.515 15.667 0.572 16.947C0.632 18.224 0.833 19.095 1.13 19.86C1.436 20.648 1.847 21.319 2.514 21.986C3.181 22.652 3.85 23.065 4.64 23.37C5.406 23.666 6.276 23.869 7.553 23.928C8.833 23.988 9.24 24 12.5 24C15.76 24 16.167 23.985 17.447 23.928C18.724 23.868 19.595 23.666 20.36 23.37C21.148 23.064 21.819 22.652 22.486 21.986C23.152 21.319 23.565 20.651 23.87 19.86C24.166 19.095 24.369 18.224 24.428 16.947C24.488 15.667 24.5 15.26 24.5 12C24.5 8.74 24.485 8.333 24.428 7.053C24.368 5.776 24.166 4.904 23.87 4.14C23.564 3.351 23.152 2.681 22.486 2.014C21.819 1.347 21.151 0.935 20.36 0.63C19.595 0.333 18.724 0.131 17.447 0.072C16.167 0.012 15.76 0 12.5 0ZM12.5 2.16C15.703 2.16 16.085 2.176 17.35 2.231C18.52 2.286 19.155 2.48 19.577 2.646C20.139 2.863 20.537 3.123 20.959 3.542C21.378 3.962 21.638 4.361 21.855 4.923C22.019 5.345 22.215 5.98 22.268 7.15C22.325 8.416 22.338 8.796 22.338 12C22.338 15.204 22.323 15.585 22.264 16.85C22.203 18.02 22.008 18.655 21.843 19.077C21.619 19.639 21.364 20.037 20.944 20.459C20.525 20.878 20.12 21.138 19.564 21.355C19.144 21.519 18.499 21.715 17.329 21.768C16.055 21.825 15.68 21.838 12.47 21.838C9.259 21.838 8.884 21.823 7.611 21.764C6.44 21.703 5.795 21.508 5.375 21.343C4.806 21.119 4.415 20.864 3.996 20.444C3.575 20.025 3.306 19.62 3.096 19.064C2.931 18.644 2.737 17.999 2.676 16.829C2.631 15.569 2.615 15.18 2.615 11.985C2.615 8.789 2.631 8.399 2.676 7.124C2.737 5.954 2.931 5.31 3.096 4.89C3.306 4.32 3.575 3.93 3.996 3.509C4.415 3.09 4.806 2.82 5.375 2.611C5.795 2.445 6.426 2.25 7.596 2.19C8.871 2.145 9.246 2.13 12.455 2.13L12.5 2.16ZM12.5 5.838C9.095 5.838 6.338 8.598 6.338 12C6.338 15.405 9.098 18.162 12.5 18.162C15.905 18.162 18.662 15.402 18.662 12C18.662 8.595 15.902 5.838 12.5 5.838ZM12.5 16C10.29 16 8.5 14.21 8.5 12C8.5 9.79 10.29 8 12.5 8C14.71 8 16.5 9.79 16.5 12C16.5 14.21 14.71 16 12.5 16ZM20.346 5.595C20.346 6.39 19.7 7.035 18.906 7.035C18.111 7.035 17.466 6.389 17.466 5.595C17.466 4.801 18.112 4.156 18.906 4.156C19.699 4.155 20.346 4.801 20.346 5.595Z" fill="#F4F4F4"/>
</g>
<defs>
<clipPath id="clip0_1_1041">
<rect width="24" height="24" fill="white" transform="translate(0.5)"/>
</clipPath>
</defs>
</svg>
