<svg width="25" height="22" viewBox="0 0 25 22" fill="none" xmlns="http://www.w3.org/2000/svg">
<path fill-rule="evenodd" clip-rule="evenodd" d="M21.5905 1.79153H3.40948C2.95735 1.79153 2.52375 1.98028 2.20405 2.31626C1.88434 2.65224 1.70474 3.10792 1.70474 3.58306V14.3322C1.70474 14.8074 1.88434 15.2631 2.20405 15.5991C2.52375 15.935 2.95735 16.1238 3.40948 16.1238H21.5905C22.0426 16.1238 22.4763 15.935 22.796 15.5991C23.1157 15.2631 23.2953 14.8074 23.2953 14.3322V3.58306C23.2953 3.10792 23.1157 2.65224 22.796 2.31626C22.4763 1.98028 22.0426 1.79153 21.5905 1.79153ZM3.40948 0C2.50523 0 1.63801 0.3775 0.998613 1.04945C0.359212 1.72141 0 2.63277 0 3.58306V14.3322C0 15.2825 0.359212 16.1939 0.998613 16.8659C1.63801 17.5378 2.50523 17.9153 3.40948 17.9153H11.6434V20.2085H7.95261C7.72655 20.2085 7.50974 20.3028 7.34989 20.4708C7.19004 20.6388 7.10024 20.8667 7.10024 21.1042C7.10024 21.3418 7.19004 21.5696 7.34989 21.7376C7.50974 21.9056 7.72655 22 7.95261 22H17.0474C17.2735 22 17.4903 21.9056 17.6501 21.7376C17.81 21.5696 17.8998 21.3418 17.8998 21.1042C17.8998 20.8667 17.81 20.6388 17.6501 20.4708C17.4903 20.3028 17.2735 20.2085 17.0474 20.2085H13.3481V17.9153H21.5905C22.4948 17.9153 23.362 17.5378 24.0014 16.8659C24.6408 16.1939 25 15.2825 25 14.3322V3.58306C25 2.63277 24.6408 1.72141 24.0014 1.04945C23.362 0.3775 22.4948 0 21.5905 0H3.40948Z" fill="#FF9800"/>
</svg>
