<svg width="90" height="30" viewBox="0 0 90 30" fill="none" xmlns="http://www.w3.org/2000/svg">
<g clip-path="url(#clip0_1_1123)">
<path d="M9.38639 0C10.4683 0.319096 11.5503 0.777796 12.6161 1.24647C13.2311 1.53066 13.83 1.79491 14.4451 2.10902C15.4067 2.54436 16.3335 3.14648 17.2079 3.90394C17.5989 4.26186 17.9619 4.68848 18.2898 5.17534C18.6305 5.70801 18.9132 6.32258 19.127 6.99518C19.4746 8.22557 19.6597 9.55127 19.6712 10.8941C19.7048 11.7645 19.6724 12.6381 19.5746 13.4968C19.4916 14.2507 19.3214 14.9753 19.0723 15.6357C18.8491 16.2217 18.526 16.7013 18.1384 17.0218C17.7685 17.3369 17.3494 17.4871 16.9277 17.4555C16.2895 17.4323 15.6631 17.1851 15.0955 16.7326C15.0794 13.7859 15.0955 10.8642 15.0955 7.91757C15.1146 7.3859 15.0962 6.85259 15.0408 6.32707C15 5.91291 14.8761 5.52913 14.6866 5.23018C14.5499 5.04601 14.3825 4.92507 14.2036 4.88117C14.1131 4.85239 14.0193 4.86433 13.9331 4.91558C13.8469 4.96683 13.7721 5.05525 13.7173 5.17035C13.5445 5.53849 13.4581 5.98712 13.4726 6.44175V30C12.1105 29.3319 10.7485 28.6688 9.38639 27.9757V0ZM3.24578 19.8837L8.5846 16.937V20.6066C7.18389 21.3844 5.76385 22.1672 4.36635 22.95C4.1677 23.0465 3.9837 23.2043 3.82539 23.4137C3.78345 23.4631 3.7519 23.5307 3.73471 23.6079C3.71752 23.6851 3.71546 23.7684 3.72879 23.8474C3.78991 24.017 3.89172 24.1424 4.01215 24.1964C4.32236 24.3707 4.65171 24.4487 4.98138 24.4258C5.35143 24.4233 5.72037 24.3632 6.08263 24.2463C6.32386 24.1564 6.5606 24.0397 6.79104 23.8973C7.38675 23.5483 7.98245 23.2342 8.6007 22.8852V26.1808C7.86179 26.3925 7.11377 26.5192 6.36278 26.5597C4.84411 26.6414 3.328 26.309 1.88371 25.5775C1.40671 25.3922 0.956609 25.0691 0.557052 24.6252C0.330586 24.3819 0.155782 24.0401 0.0547261 23.643C-0.0234126 23.294 -0.0165422 22.9128 0.0740463 22.571C0.182229 22.2524 0.342005 21.9826 0.537731 21.7883C0.98685 21.3366 1.46227 20.951 1.95777 20.6365C2.36671 20.3473 2.81752 20.113 3.24578 19.8837Z" fill="#F4F4F4"/>
<path d="M17.5621 18.6422C17.971 18.5824 18.3671 18.5524 18.7761 18.5275C20.1173 18.5073 21.4523 18.8101 22.7335 19.425C22.975 19.5396 23.2165 19.6842 23.4805 19.8238C23.9353 20.0501 24.3589 20.4051 24.7299 20.8709C24.8434 21.0167 24.9367 21.1965 25.0042 21.3996C25.0717 21.6027 25.112 21.8247 25.1227 22.0525C25.1274 22.2405 25.1063 22.428 25.0608 22.6024C25.0153 22.7769 24.9464 22.9344 24.8587 23.0647C24.5461 23.5659 24.173 23.9673 23.7607 24.2463C23.3297 24.5595 22.8867 24.8309 22.434 25.059C19.7099 26.5597 16.9825 28.0904 14.2583 29.5961V26.0412C14.2583 25.9814 14.239 25.9216 14.297 25.8916C16.3675 24.7399 18.4412 23.6131 20.5117 22.4514C20.8011 22.3199 21.0775 22.1269 21.3328 21.878C21.387 21.8215 21.4297 21.7423 21.4559 21.6496C21.4821 21.5569 21.4908 21.4545 21.4809 21.3545C21.4205 21.186 21.32 21.0607 21.2007 21.0055C20.8905 20.8312 20.5612 20.7533 20.2315 20.7761C19.7122 20.7741 19.1957 20.8918 18.6988 21.1251C17.228 21.9374 15.7543 22.7368 14.2777 23.5234V19.7092C15.3477 19.1905 16.4476 18.8332 17.5621 18.6422ZM69.746 6.95031H62.3753C60.0988 6.95031 58.9782 9.11916 58.9782 11.9511V20.5318C58.9782 22.2968 58.4372 23.5383 57.3167 23.5383H50.8573C50.8381 23.5406 50.8201 23.5534 50.8065 23.5744C50.793 23.5955 50.7847 23.6233 50.7832 23.653V25.3881C50.7832 25.4479 50.8218 25.5376 50.8573 25.5376H58.1764C60.453 25.5376 61.5736 23.3638 61.5736 20.5318V11.9511C61.5736 10.1861 62.0952 8.94466 63.2351 8.94466H69.7653C69.7879 8.94893 69.8107 8.9393 69.8287 8.91786C69.8468 8.89642 69.8587 8.86487 69.8619 8.82998V7.0949C69.8561 7.054 69.8414 7.0174 69.8203 6.99112C69.7993 6.96484 69.7731 6.95045 69.746 6.95031ZM48.0204 6.95031H33.8201C33.7975 6.94604 33.7747 6.95566 33.7566 6.9771C33.7386 6.99854 33.7267 7.0301 33.7235 7.06498V8.80007C33.725 8.83846 33.7358 8.87456 33.7537 8.90129C33.7716 8.92803 33.7952 8.9435 33.8201 8.94466H47.1639C48.2812 8.94466 48.8254 10.2161 48.8254 11.9511C48.8254 13.7112 48.2812 14.9576 47.1639 14.9576H36.599C34.9567 14.9576 33.7235 17.0916 33.7235 19.9285V25.418C33.7224 25.4378 33.7242 25.4578 33.7288 25.4764C33.7333 25.495 33.7405 25.5118 33.7497 25.5256C33.7589 25.5395 33.77 25.5499 33.7822 25.5563C33.7944 25.5627 33.8073 25.5649 33.8201 25.5626H36.2254C36.2379 25.5641 36.2505 25.5614 36.2623 25.5546C36.274 25.5479 36.2847 25.5373 36.2936 25.5235C36.3025 25.5098 36.3093 25.4933 36.3137 25.475C36.318 25.4568 36.3198 25.4374 36.3188 25.418V19.9285C36.3188 18.1935 36.9725 16.952 37.9063 16.952H48.0204C50.297 16.952 51.4015 14.7831 51.4015 11.9511C51.4015 9.14409 50.297 6.95031 48.0204 6.95031ZM88.9374 16.0246C88.9288 16.0116 88.922 15.9961 88.9174 15.979C88.9127 15.9618 88.9104 15.9435 88.9104 15.9249C88.9104 15.9063 88.9127 15.8879 88.9174 15.8708C88.922 15.8537 88.9288 15.8382 88.9374 15.8252C89.2896 15.349 89.5679 14.7562 89.7519 14.0908C89.9358 13.4253 90.0206 12.7042 90 11.9811C90 9.14409 88.873 6.98022 86.5964 6.98022H72.3961C72.3833 6.97795 72.3704 6.98008 72.3582 6.98647C72.3461 6.99286 72.335 7.00334 72.3257 7.01717C72.3165 7.031 72.3093 7.04782 72.3048 7.06643C72.3003 7.08505 72.2985 7.10499 72.2995 7.12481V8.8599C72.3011 8.89829 72.3119 8.93439 72.3297 8.96113C72.3476 8.98786 72.3713 9.00333 72.3961 9.00449H85.7399C86.8605 9.00449 87.4015 10.2759 87.4015 12.006C87.4015 13.771 86.8605 15.0125 85.7399 15.0125H72.3961C72.383 15.0101 72.3698 15.0123 72.3574 15.0189C72.3449 15.0256 72.3336 15.0366 72.3243 15.051C72.315 15.0654 72.308 15.0828 72.3037 15.1021C72.2994 15.1213 72.2979 15.1418 72.2995 15.162V16.8921C72.3027 16.927 72.3146 16.9586 72.3327 16.98C72.3507 17.0015 72.3735 17.0111 72.3961 17.0068H85.7399C87.2147 17.0367 87.4015 19.2604 87.4015 20.3872V20.5867C87.4015 22.3517 86.8605 23.6281 85.7399 23.6281H72.3961C72.3735 23.6238 72.3507 23.6334 72.3327 23.6549C72.3146 23.6763 72.3027 23.7078 72.2995 23.7427V25.4778C72.3011 25.5162 72.3119 25.5523 72.3297 25.579C72.3476 25.6058 72.3713 25.6212 72.3961 25.6224H86.5964C88.8762 25.6224 89.9968 23.279 89.9968 20.6216V20.4221C89.9968 18.6272 89.6426 17.0068 88.9342 16.0246H88.9374Z" fill="#F4F4F4"/>
</g>
<defs>
<clipPath id="clip0_1_1123">
<rect width="90" height="30" fill="white"/>
</clipPath>
</defs>
</svg>
