<svg width="90" height="30" viewBox="0 0 90 30" fill="none" xmlns="http://www.w3.org/2000/svg">
<g clip-path="url(#clip0_1_1115)">
<path d="M62.5679 20.5468V11.8763C62.5679 10.1163 63.1088 8.84494 64.2291 8.84494H71.228C71.2528 8.84247 71.2761 8.82578 71.2933 8.79812C71.3106 8.77046 71.3206 8.73382 71.3213 8.69536V6.90543H62.7579C60.8906 7.28436 59.9925 9.27871 59.9925 11.8514V20.5169C59.9925 22.2819 59.4516 23.5533 58.3313 23.5533H50.9268C50.9019 23.5544 50.8783 23.5699 50.8604 23.5966C50.8426 23.6234 50.8318 23.6595 50.8302 23.6979V25.4329C50.8371 25.4895 50.8565 25.5406 50.8849 25.5775H59.2842C61.4862 25.4928 62.5679 23.3239 62.5679 20.5468ZM33.7741 25.5775H36.2369C36.2544 25.5644 36.2691 25.5438 36.2794 25.5182C36.2896 25.4926 36.295 25.4631 36.2949 25.4329V19.9136C36.2949 18.1486 36.9452 16.937 37.8788 16.937H48.0133C50.2893 16.937 51.4097 14.7682 51.4097 11.9063C51.4097 9.33355 50.4954 7.3392 48.6475 6.96526H33.7355C33.726 6.98188 33.7203 7.00293 33.7194 7.02509V8.75519C33.7194 8.84494 33.7355 8.90477 33.7934 8.90477H47.1537C48.2901 8.90477 48.8149 10.1712 48.8149 11.9362C48.8149 13.7012 48.274 14.9726 47.1537 14.9726H36.5943C34.9524 14.9726 33.7194 17.1364 33.7194 19.9684V25.4329C33.7166 25.4631 33.7205 25.4938 33.7304 25.52C33.7404 25.5463 33.7558 25.5666 33.7741 25.5775Z" fill="#F4F4F4"/>
<path d="M71.2827 23.5832H84.7396C84.7559 23.5846 84.7716 23.5933 84.7848 23.6084C84.798 23.6234 84.808 23.6441 84.8136 23.6679V25.4329C84.8121 25.4527 84.8135 25.4727 84.8176 25.4916C84.8218 25.5104 84.8285 25.5276 84.8375 25.5419C84.8464 25.5562 84.8573 25.5673 84.8693 25.5743C84.8813 25.5813 84.8942 25.5841 84.907 25.5825H87.3344C87.3569 25.5776 87.3773 25.5591 87.3911 25.5311C87.405 25.5032 87.4112 25.4679 87.4084 25.4329V23.6979C87.4099 23.6603 87.4202 23.6249 87.4374 23.5982C87.4546 23.5716 87.4775 23.5556 87.5018 23.5533H89.9098C89.9223 23.5548 89.9349 23.552 89.9467 23.5453C89.9584 23.5386 89.9691 23.528 89.978 23.5142C89.9869 23.5005 89.9937 23.484 89.9981 23.4657C90.0024 23.4475 90.0042 23.428 90.0032 23.4087V21.6736C90.0042 21.6538 90.0024 21.6338 89.9979 21.6152C89.9933 21.5966 89.9862 21.5798 89.977 21.5659C89.9677 21.5521 89.9566 21.5416 89.9445 21.5352C89.9323 21.5289 89.9194 21.5267 89.9066 21.529H87.4986C87.4743 21.5266 87.4514 21.5107 87.4342 21.484C87.417 21.4574 87.4067 21.422 87.4052 21.3844V8.84494C87.4052 7.80289 87.1637 7.16968 86.7549 6.93535H86.0466C85.7943 7.03702 85.5548 7.2039 85.3384 7.42895L70.8352 21.2697C70.2751 21.8182 70.069 22.4265 70.2203 22.8901C70.333 23.294 70.6485 23.5832 71.2827 23.5832ZM73.3753 21.2697L84.6108 10.5202C84.6302 10.4963 84.6538 10.4818 84.6786 10.4787C84.7033 10.4755 84.7281 10.4838 84.7499 10.5025C84.7716 10.5212 84.7892 10.5494 84.8006 10.5836C84.8119 10.6178 84.8165 10.6565 84.8136 10.6947V21.4393C84.8129 21.4777 84.8029 21.5143 84.7856 21.542C84.7684 21.5697 84.745 21.5864 84.7203 21.5888H73.4332C73.3367 21.5888 73.2819 21.529 73.2819 21.4991C73.282 21.4499 73.2911 21.4017 73.3082 21.3602C73.3253 21.3187 73.3497 21.2856 73.3785 21.2648L73.3753 21.2697Z" fill="#F4F4F4"/>
<path d="M9.38438 0C10.4661 0.319096 11.5478 0.777796 12.6134 1.24647C13.2283 1.53066 13.8271 1.79491 14.442 2.10902C15.4034 2.54436 16.33 3.14648 17.2042 3.90394C17.5951 4.26186 17.9581 4.68848 18.2859 5.17534C18.6265 5.70801 18.9091 6.32258 19.1229 6.99518C19.4704 8.22557 19.6554 9.55127 19.667 10.8941C19.7006 11.7645 19.6682 12.6381 19.5704 13.4968C19.4874 14.2507 19.3173 14.9753 19.0682 15.6357C18.845 16.2217 18.522 16.7013 18.1346 17.0218C17.7647 17.3369 17.3457 17.4871 16.9241 17.4555C16.286 17.4323 15.6597 17.1851 15.0923 16.7326C15.0762 13.7859 15.0923 10.8642 15.0923 7.91757C15.1113 7.3859 15.093 6.85259 15.0375 6.32707C14.9968 5.91291 14.8729 5.52913 14.6834 5.23018C14.5468 5.04601 14.3794 4.92507 14.2005 4.88117C14.1101 4.85239 14.0163 4.86433 13.9301 4.91558C13.844 4.96683 13.7691 5.05525 13.7144 5.17035C13.5415 5.53849 13.4552 5.98712 13.4697 6.44175V30C12.1079 29.3319 10.7462 28.6688 9.38438 27.9757V0ZM3.24509 19.8837L8.58276 16.937V20.6066C7.18234 21.3844 5.76261 22.1672 4.36542 22.95C4.16681 23.0465 3.98284 23.2043 3.82457 23.4137C3.78264 23.4631 3.75109 23.5307 3.73391 23.6079C3.71672 23.6851 3.71466 23.7684 3.72799 23.8474C3.7891 24.017 3.89089 24.1424 4.01129 24.1964C4.32143 24.3707 4.65071 24.4487 4.98031 24.4258C5.35028 24.4233 5.71914 24.3632 6.08133 24.2463C6.3225 24.1564 6.5592 24.0397 6.78958 23.8973C7.38516 23.5483 7.98074 23.2342 8.59886 22.8852V26.1808C7.8601 26.3925 7.11224 26.5192 6.36141 26.5597C4.84307 26.6414 3.32728 26.309 1.8833 25.5775C1.40641 25.3922 0.956404 25.0691 0.556932 24.6252C0.330515 24.3819 0.155748 24.0401 0.0547145 23.643C-0.0234074 23.294 -0.0165385 22.9128 0.0740306 22.571C0.18219 22.2524 0.341932 21.9826 0.537616 21.7883C0.986638 21.3366 1.46195 20.951 1.95735 20.6365C2.3662 20.3473 2.81691 20.113 3.24509 19.8837Z" fill="#F4F4F4"/>
<path d="M17.5583 18.6422C17.9672 18.5823 18.3632 18.5524 18.772 18.5275C20.1129 18.5073 21.4477 18.8101 22.7286 19.425C22.9701 19.5396 23.2115 19.6842 23.4755 19.8238C23.9301 20.0501 24.3537 20.4051 24.7246 20.8709C24.8381 21.0167 24.9314 21.1965 24.9989 21.3996C25.0664 21.6027 25.1067 21.8247 25.1174 22.0525C25.122 22.2405 25.1009 22.428 25.0554 22.6024C25.0099 22.7769 24.9411 22.9344 24.8534 23.0646C24.5408 23.5659 24.1679 23.9673 23.7556 24.2463C23.3247 24.5595 22.8818 24.8309 22.4292 25.059C19.7056 26.5597 16.9789 28.0904 14.2553 29.5961V26.0412C14.2553 25.9814 14.236 25.9216 14.2939 25.8916C16.364 24.7399 18.4372 23.6131 20.5073 22.4514C20.7967 22.3199 21.0729 22.1269 21.3282 21.878C21.3824 21.8215 21.4251 21.7423 21.4513 21.6496C21.4775 21.5569 21.4862 21.4545 21.4763 21.3545C21.4159 21.186 21.3154 21.0607 21.1962 21.0055C20.8861 20.8312 20.5568 20.7533 20.2272 20.7761C19.708 20.7741 19.1916 20.8918 18.6948 21.1251C17.2243 21.9374 15.7509 22.7368 14.2746 23.5234V19.7092C15.3444 19.1905 16.4441 18.8332 17.5583 18.6422Z" fill="#F4F4F4"/>
</g>
<defs>
<clipPath id="clip0_1_1115">
<rect width="90" height="30" fill="white"/>
</clipPath>
</defs>
</svg>
