<svg width="90" height="30" viewBox="0 0 90 30" fill="none" xmlns="http://www.w3.org/2000/svg">
<g clip-path="url(#clip0_1_1110)">
<path fill-rule="evenodd" clip-rule="evenodd" d="M1.96712 25.5327C-0.0977234 24.6701 -0.446377 22.8702 0.501419 21.8381C1.23289 21.1285 2.02514 20.5651 2.85737 20.1629L8.98758 16.942V20.6116L4.58371 22.935C3.80517 23.3538 3.68331 23.9372 4.3163 24.2463C5.16489 24.5387 6.05245 24.4696 6.87535 24.0469L8.98758 22.9201V26.2107C8.85218 26.2506 8.70324 26.2805 8.57123 26.3204C6.35972 26.842 4.09543 26.5701 1.9705 25.5277L1.96712 25.5327ZM14.891 25.9116L21.7659 22.2968C22.5444 21.878 22.6663 21.3046 22.0333 21.0005C21.1847 20.7081 20.2972 20.7772 19.4743 21.1999L14.8978 23.5782V19.7889L15.1652 19.6593C16.1999 19.1689 17.2662 18.8364 18.3471 18.6671C20.3522 18.3593 22.3786 18.7171 24.2776 19.7141C26.295 20.6515 26.5218 22.0475 26.0107 22.9948C25.4995 23.9422 24.2369 24.6302 24.2369 24.6302L14.8978 29.5862L14.891 25.9116ZM15.6932 2.39322C19.3152 4.23799 20.5439 6.52651 20.5439 11.6869C20.5439 16.7226 18.452 18.6222 15.7812 16.7226V7.33921C15.7812 6.23733 15.6458 5.23018 14.9452 4.941C14.4171 4.69171 14.0854 5.42962 14.0854 6.51654V30L9.81352 27.9907V0C11.8052 0.619449 13.7689 1.42039 15.6932 2.39821V2.39322Z" fill="#F4F4F4"/>
<path d="M89.5159 5.98305H72.0866V12.9483C72.0866 12.9483 72.0291 15.6407 74.2936 15.6407H84.9529C85.3693 15.6415 85.7814 15.7652 86.1648 16.0047C86.5449 16.221 86.8702 16.6057 87.0957 17.1058C87.3213 17.6059 87.4359 18.1967 87.424 18.7967C87.4409 19.3329 87.3624 19.8662 87.1961 20.3437C87.0298 20.8213 86.7817 21.2265 86.4762 21.519C86.0853 21.8836 85.6322 22.0772 85.1696 22.0774H72.0866V24.0269H86.686C86.686 24.0269 90.0033 23.8325 90.0033 18.8117C90.0282 17.8709 89.8569 16.9414 89.5126 16.1482C89.1683 15.3549 88.6674 14.7359 88.0773 14.3743C87.4894 13.9755 86.8493 13.7713 86.202 13.776H75.6408C75.4658 13.7793 75.2932 13.7158 75.1399 13.5915C74.9878 13.4743 74.8621 13.2946 74.7779 13.0742C74.6938 12.8539 74.6549 12.6023 74.666 12.35V7.92754H89.5193L89.5159 5.98305ZM50.1485 22.0625V24.012H57.5447C58.4285 24.0246 59.286 23.5699 59.9616 22.7306C60.3089 22.2948 60.586 21.7506 60.7728 21.1374C60.9596 20.5243 61.0513 19.8575 61.0414 19.1856V10.8842C61.0373 10.4298 61.1035 9.98 61.2348 9.56883C61.3662 9.15767 61.5593 8.7959 61.7996 8.51089C62.1394 8.12018 62.5602 7.91413 62.9911 7.92754H69.4429V5.98305H61.759C61.759 5.98305 58.4417 6.07279 58.4417 11.2332V18.9912C58.4479 19.6229 58.3342 20.2445 58.1134 20.7861C57.9498 21.1865 57.7169 21.5157 57.4385 21.74C57.1602 21.9642 56.8464 22.0755 56.5292 22.0625H50.1485ZM33.0679 5.98305V7.9076H46.2558C46.6211 7.90551 46.9825 8.01945 47.3153 8.24165C47.6576 8.45959 47.9468 8.82574 48.1445 9.29148C48.3422 9.75723 48.439 10.3005 48.4222 10.8493C48.4366 11.3903 48.3383 11.9249 48.1404 12.3813C47.9426 12.8376 47.6546 13.1938 47.3153 13.402C46.9758 13.6322 46.6058 13.748 46.2321 13.7411H36.4596C35.8813 13.7263 35.309 13.916 34.7908 14.2945C34.2553 14.7088 33.8102 15.3379 33.5071 16.109C33.2041 16.8801 33.0553 17.7618 33.078 18.6522V23.9521H35.6168V18.6821C35.6143 18.3397 35.6557 17.9997 35.7386 17.6799C35.8753 17.0686 36.1413 16.5379 36.4976 16.1655C36.854 15.7931 37.282 15.5987 37.7188 15.6108H47.5827C47.9145 15.6152 48.2451 15.5497 48.5643 15.4163C49.4783 15.0424 50.9812 13.9405 50.9812 10.8393C50.9812 6.02792 47.7215 5.95313 47.7215 5.95313H33.0713L33.0679 5.98305Z" fill="#F4F4F4"/>
</g>
<defs>
<clipPath id="clip0_1_1110">
<rect width="90" height="30" fill="white"/>
</clipPath>
</defs>
</svg>
