<svg width="24" height="24" viewBox="0 0 24 24" fill="none" xmlns="http://www.w3.org/2000/svg">
<g clip-path="url(#clip0_2_103)">
<path d="M11.979 0C5.67797 0 0.510973 4.86 0.0219727 11.037L6.45397 13.695C6.99897 13.324 7.65697 13.105 8.36597 13.105C8.42897 13.105 8.49097 13.109 8.55397 13.111L11.415 8.969V8.91C11.415 6.415 13.443 4.386 15.939 4.386C18.433 4.386 20.463 6.417 20.463 8.913C20.463 11.409 18.433 13.438 15.939 13.438H15.834L11.758 16.349C11.758 16.401 11.762 16.454 11.762 16.508C11.762 18.383 10.247 19.904 8.37197 19.904C6.73697 19.904 5.35597 18.731 5.04097 17.177L0.435973 15.27C1.86197 20.307 6.48597 24 11.979 24C18.606 24 23.978 18.627 23.978 12C23.978 5.373 18.605 0 11.979 0ZM7.53997 18.21L6.06697 17.6C6.32897 18.143 6.78097 18.599 7.38097 18.85C8.67797 19.389 10.174 18.774 10.713 17.475C10.976 16.845 10.977 16.156 10.718 15.526C10.459 14.896 9.96797 14.405 9.34097 14.143C8.71697 13.883 8.05097 13.894 7.46297 14.113L8.98597 14.743C9.94197 15.143 10.395 16.243 9.99497 17.198C9.59797 18.155 8.49697 18.608 7.53997 18.21ZM18.955 8.907C18.955 7.245 17.602 5.892 15.94 5.892C14.275 5.892 12.925 7.245 12.925 8.907C12.925 10.572 14.275 11.922 15.94 11.922C17.603 11.922 18.955 10.572 18.955 8.907ZM13.682 8.902C13.682 7.65 14.695 6.636 15.947 6.636C17.196 6.636 18.213 7.65 18.213 8.902C18.213 10.153 17.196 11.167 15.947 11.167C14.694 11.167 13.682 10.153 13.682 8.902Z" fill="#F4F4F4"/>
</g>
<defs>
<clipPath id="clip0_2_103">
<rect width="24" height="24" fill="white"/>
</clipPath>
</defs>
</svg>
