<svg width="25" height="24" viewBox="0 0 25 24" fill="none" xmlns="http://www.w3.org/2000/svg">
<g clip-path="url(#clip0_1_1038)">
<path d="M24.453 4.57009C23.5545 4.96569 22.6026 5.22683 21.628 5.34509C22.6541 4.72834 23.4224 3.76113 23.791 2.62209C22.84 3.17709 21.786 3.58109 20.664 3.80609C19.9238 3.01452 18.9429 2.48951 17.8736 2.31259C16.8044 2.13567 15.7067 2.31674 14.7509 2.82768C13.7952 3.33862 13.0349 4.15084 12.5881 5.13821C12.1412 6.12558 12.033 7.23286 12.28 8.28809C8.19 8.09509 4.567 6.13009 2.14 3.16209C1.69879 3.9119 1.46866 4.76711 1.474 5.63709C1.474 7.34709 2.344 8.85009 3.662 9.73309C2.88086 9.70822 2.11697 9.49702 1.434 9.11709V9.17709C1.43356 10.3135 1.82627 11.415 2.54551 12.2948C3.26474 13.1747 4.26621 13.7786 5.38 14.0041C4.6583 14.1975 3.90241 14.2265 3.168 14.0891C3.48412 15.0671 4.09766 15.922 4.92301 16.5346C5.74837 17.1471 6.74435 17.4868 7.772 17.5061C6.03153 18.872 3.88248 19.6134 1.67 19.6111C1.28 19.6111 0.891 19.5881 0.5 19.5441C2.75571 20.9884 5.37851 21.7551 8.057 21.7531C17.11 21.7531 22.055 14.2571 22.055 7.76809C22.055 7.55809 22.055 7.34809 22.04 7.13809C23.006 6.44295 23.8392 5.57991 24.5 4.59009L24.453 4.57009Z" fill="#F4F4F4"/>
</g>
<defs>
<clipPath id="clip0_1_1038">
<rect width="24" height="24" fill="white" transform="translate(0.5)"/>
</clipPath>
</defs>
</svg>
