<svg width="50" height="30" viewBox="0 0 50 30" fill="none" xmlns="http://www.w3.org/2000/svg">
<g clip-path="url(#clip0_1_1128)">
<path d="M38.0294 23.432L42.6471 29.8201H43.5V21.8724H42.6471V28.4105L37.9118 21.8724H37.1471V29.8201H38.0294V23.432ZM32.6471 21.6925C30.4412 21.6925 28.9118 23.402 28.9118 25.8312C28.9118 28.2905 30.4412 30 32.6471 30C34.8236 30 36.353 28.2905 36.353 25.8312C36.353 23.402 34.8236 21.6925 32.6471 21.6925ZM32.6471 29.1602C30.9706 29.1602 29.7941 27.8107 29.7941 25.8312C29.7941 23.8818 30.9706 22.5322 32.6471 22.5322C34.3236 22.5322 35.4706 23.8818 35.4706 25.8312C35.4706 27.8107 34.2941 29.1602 32.6471 29.1602ZM49.9412 22.6522V21.8724H44.5V29.8201H50V29.0403H45.353V26.1012H49.6471V25.3214H45.353V22.6522H49.9412ZM21.7353 21.8724L23.9706 24.9615L26.2059 21.8724H27.2353L24.5 25.6513L27.5 29.8201H26.4706L23.9706 26.3711L21.4706 29.8201H20.4706L23.4412 25.6513L20.7059 21.8724H21.7353ZM12.7353 25.9512C12.5781 25.8271 12.4108 25.7167 12.2353 25.6213C12.5193 25.4689 12.757 25.2403 12.9229 24.9602C13.0888 24.68 13.1765 24.359 13.1765 24.0318C13.1765 23.5219 13 21.8724 10.6471 21.8724H7.47061V25.2914H6.41179C6.26473 25.4714 5.97061 25.9212 5.85297 26.1012H7.47061V29.8201H10.6471C12.353 29.8201 13.4412 28.9203 13.4412 27.5107C13.4362 27.2151 13.3708 26.9237 13.2493 26.6552C13.1278 26.3867 12.9527 26.1469 12.7353 25.9512ZM8.35297 22.7122H10.6471C11.2647 22.7122 12.2941 22.8621 12.2941 23.9718C12.2941 24.8116 11.6765 25.2914 10.6471 25.2914H8.35297V22.7122ZM10.6471 28.9803H8.35297V26.1012H10.6471C11.5294 26.1012 12.5588 26.3411 12.5588 27.4808C12.5294 28.8004 11.353 28.9803 10.6471 28.9803Z" fill="#F4F4F4"/>
<path d="M17.5294 21.6925C15.3529 21.6925 13.8235 23.402 13.8235 25.8312C13.8235 28.2905 15.3529 30 17.5588 30C19.7353 30 21.2647 28.2905 21.2647 25.8312C21.2647 23.402 19.7353 21.6925 17.5294 21.6925ZM17.5294 29.1603C15.8529 29.1603 14.6765 27.8107 14.6765 25.8312C14.6765 23.8818 15.8529 22.5322 17.5294 22.5322C19.2059 22.5322 20.3529 23.8818 20.3529 25.8312C20.3824 27.8107 19.2059 29.1603 17.5294 29.1603ZM0.264706 21.8724L3 25.6513L0 29.8201H1.02941L3.52941 26.3711L6 29.8201H7.02941L4.02941 25.6513L6.76471 21.8724H5.73529L3.52941 24.9615L1.29412 21.8724H0.264706ZM24.0588 19.1702C22.5704 19.0124 21.1394 18.4986 19.8824 17.6707C18.8235 16.9809 18.5882 16.681 18.5882 16.1112C18.5882 14.9415 19.8235 12.9321 21.9706 10.6228C23.1765 9.30321 24.8824 7.77367 25.0588 7.80366C25.4118 7.89363 28.2647 10.7128 29.3235 12.0324C31 14.1318 31.7647 15.8712 31.3824 16.621C31.0882 17.1908 29.2353 18.3605 27.8824 18.7804C26.6423 19.1497 25.346 19.2819 24.0588 19.1702ZM17.1471 14.8815C16.2647 13.5019 15.8235 12.1524 15.6176 10.2029C15.5588 9.54313 15.5588 9.18324 15.7647 7.86364C16.0779 6.09581 16.873 4.45363 18.0588 3.12506C18.5294 2.61521 18.5588 2.61521 19.1471 2.79516C19.8529 3.03509 20.5882 3.57493 21.7647 4.62461L22.4412 5.25442L22.0588 5.73428C20.3529 7.89363 18.5294 10.9227 17.8529 12.8122C17.4706 13.8318 17.3235 14.8515 17.5 15.3014C17.6176 15.5713 17.5294 15.4514 17.1471 14.8815ZM32.5882 15.1215C32.6765 14.7016 32.5588 13.8918 32.2941 13.0821C31.7353 11.3426 29.8824 8.13356 28.1765 5.94421L27.6471 5.25442L28.2353 4.71458C28.8047 4.15572 29.4252 3.65359 30.0882 3.21503C30.4948 2.93581 30.9567 2.75149 31.4412 2.6752C31.6176 2.6752 32.2059 3.30501 32.7059 3.9948C33.4643 5.11908 34.0035 6.38166 34.2941 7.71368C34.4804 8.91513 34.4904 10.1382 34.3235 11.3426C34.1685 12.1258 33.9318 12.8899 33.6176 13.6219C33.3444 14.2104 33.0196 14.7726 32.6471 15.3014C32.5 15.4514 32.5 15.4514 32.5882 15.1215ZM24.2059 2.34529C23.357 1.91165 22.4577 1.58919 21.5294 1.38558C21.2941 1.35559 20.8824 1.3256 20.6471 1.3256C20.0882 1.35559 20.1176 1.3256 21 0.905726C21.6997 0.557899 22.4414 0.305796 23.2059 0.155951C24.4128 -0.0539978 25.646 -0.0539978 26.8529 0.155951C27.8518 0.367254 28.8137 0.731255 29.7059 1.23563L29.9118 1.35559L29.4706 1.3256C28.5294 1.29561 27.2059 1.6555 25.7941 2.34529C25.3824 2.55523 25 2.73518 25 2.73518C24.9706 2.73518 24.6176 2.55523 24.2059 2.34529Z" fill="#F4F4F4"/>
</g>
<defs>
<clipPath id="clip0_1_1128">
<rect width="50" height="30" fill="white"/>
</clipPath>
</defs>
</svg>
