<svg width="50" height="30" viewBox="0 0 50 30" fill="none" xmlns="http://www.w3.org/2000/svg">
<g clip-path="url(#clip0_1_1133)">
<path d="M27.8072 29.7901L25.1911 26.1612L22.575 29.7901H21.4874L24.6326 25.4114L21.7519 21.4226H22.8395L25.1911 24.6616L27.5426 21.4226H28.6302L25.7496 25.4114L28.8948 29.7901H27.8072ZM7.40741 29.7901L4.2328 25.4114L7.11346 21.4226H6.02587L3.67431 24.6616L1.32275 21.4226H0.26455L3.14521 25.4114L0 29.7901H1.0876L3.7037 26.1612L6.31981 29.7901H7.40741ZM14.1093 27.3308C14.1093 28.8303 12.9924 29.7901 11.1699 29.7901H7.84832V25.8612H6.14344C6.26102 25.6813 6.58436 25.2014 6.73133 25.0215H7.84832V21.4226H11.1699C13.639 21.4226 13.8448 23.162 13.8448 23.7019C13.8465 24.0487 13.754 24.3892 13.5776 24.6857C13.4012 24.9821 13.1478 25.2229 12.8454 25.3814C13.0347 25.4802 13.2123 25.6009 13.3745 25.7413C13.6087 25.9306 13.7968 26.1725 13.9243 26.4483C14.0518 26.724 14.1151 27.026 14.1093 27.3308ZM8.75955 25.0215H11.1699C12.2869 25.0215 12.9042 24.4817 12.9042 23.6119C12.9042 22.4423 11.8166 22.2923 11.1699 22.2923H8.75955V25.0215ZM13.1687 27.3308C13.1687 26.1312 12.0811 25.8612 11.1699 25.8612H8.75955V28.9203H11.1699C11.9342 28.9203 13.1687 28.7104 13.1687 27.3308ZM22.3398 25.5913C22.3398 28.1705 20.7231 29.97 18.4303 29.97C16.1376 29.97 14.5209 28.1705 14.5209 25.5913C14.5209 23.0121 16.1376 21.2126 18.4303 21.2126C20.7525 21.2126 22.3398 23.0121 22.3398 25.5913ZM21.3992 25.5913C21.3992 23.5219 20.1646 22.1124 18.4303 22.1124C16.6667 22.1124 15.4321 23.5519 15.4321 25.5913C15.4321 27.6307 16.6667 29.1003 18.4303 29.1003C20.194 29.1003 21.3992 27.6607 21.3992 25.5913ZM46.9136 21.2126C44.9735 21.2126 43.8566 22.8022 43.8566 25.5913C43.8566 28.3805 44.9735 29.97 46.9136 29.97C47.4195 29.9899 47.9205 29.8622 48.3578 29.6019C48.7951 29.3416 49.1506 28.9595 49.3827 28.5004C49.8159 27.5852 50.0275 26.5773 50 25.5613C49.9706 24.3017 49.6767 21.2126 46.9136 21.2126ZM46.9136 29.2502C46.6595 29.2602 46.4061 29.2175 46.1686 29.1247C45.9312 29.0319 45.7146 28.891 45.532 28.7104C44.7384 27.9006 44.6208 26.4311 44.6208 25.6213C44.6208 24.5416 44.856 21.9924 46.8842 21.9924C48.9418 21.9924 49.1476 24.5416 49.1476 25.6213C49.1769 26.701 48.9418 29.2502 46.9136 29.2502ZM40.3292 24.1218C39.897 24.1237 39.4716 24.2308 39.0881 24.4343C38.7047 24.6377 38.3744 24.9316 38.1246 25.2914C38.2422 23.7019 38.7419 21.9624 40.4174 21.9624C40.8602 21.9498 41.2919 22.1054 41.6286 22.3991C41.9654 22.6928 42.1832 23.1036 42.2399 23.5519L42.2693 23.7019H43.0629L43.0335 23.492C42.8865 22.0824 41.8871 21.1826 40.4174 21.1826C37.8307 21.1826 37.3016 23.7919 37.3016 25.9812C37.3016 28.5904 38.3598 29.97 40.3292 29.97C41.0893 29.97 41.8183 29.6619 42.3558 29.1136C42.8932 28.5652 43.1952 27.8214 43.1952 27.0459C43.1952 26.2704 42.8932 25.5266 42.3558 24.9782C41.8183 24.4298 41.0893 24.1218 40.3292 24.1218ZM40.3292 29.2502C39.7601 29.2502 39.2143 29.0196 38.8119 28.609C38.4095 28.1984 38.1834 27.6415 38.1834 27.0609C38.1834 26.4802 38.4095 25.9234 38.8119 25.5128C39.2143 25.1022 39.7601 24.8715 40.3292 24.8715C40.5916 24.8712 40.8515 24.9241 41.0937 25.027C41.3359 25.13 41.5556 25.281 41.7402 25.4714C42.1547 25.9044 42.3867 26.4856 42.3868 27.0909C42.3919 27.3708 42.3426 27.649 42.2417 27.9094C42.1408 28.1698 41.9903 28.4073 41.799 28.608C41.6077 28.8088 41.3794 28.9689 41.1271 29.0791C40.8748 29.1893 40.6036 29.2475 40.3292 29.2502ZM36.6843 27.4208C36.6843 28.9803 35.5379 30 33.7743 30C32.8042 30 32.04 29.7001 31.5403 29.1603C31.2842 28.8626 31.0897 28.5153 30.9684 28.1391C30.8472 27.7628 30.8018 27.3655 30.8348 26.9709V26.791H31.6285V26.9709C31.5978 27.2684 31.6291 27.5691 31.7203 27.8533C31.8115 28.1376 31.9605 28.399 32.1576 28.6204C32.3745 28.8249 32.6292 28.9832 32.9068 29.0862C33.1844 29.1892 33.4792 29.2347 33.7743 29.2202C34.8325 29.2202 35.8906 28.5904 35.8906 27.3908C35.9019 27.1751 35.8684 26.9595 35.7925 26.758C35.7165 26.5564 35.5997 26.3735 35.4497 26.2211C34.9705 25.8491 34.3749 25.6679 33.7743 25.7113H33.2158V24.9315H33.7743C34.1564 24.9315 34.9206 24.8415 35.3322 24.4217C35.458 24.2915 35.5567 24.1367 35.6223 23.9667C35.688 23.7966 35.7193 23.6147 35.7143 23.432C35.7143 22.4723 34.7443 21.9624 33.7743 21.9624C33.3271 21.9512 32.892 22.1113 32.5547 22.411C32.2174 22.7108 32.0023 23.1285 31.9518 23.5819L31.9224 23.7319H31.1581L31.1875 23.5219C31.3345 22.1124 32.3339 21.2126 33.8036 21.2126C34.6855 21.2126 35.4791 21.4826 35.9494 21.9924C36.1369 22.1847 36.2834 22.4146 36.3795 22.6675C36.4756 22.9204 36.5193 23.1909 36.5079 23.462C36.5166 23.8524 36.4126 24.2369 36.2088 24.5675C36.0049 24.8982 35.7103 25.1603 35.3615 25.3214C35.7687 25.4875 36.1149 25.779 36.352 26.1553C36.5891 26.5316 36.7052 26.9739 36.6843 27.4208ZM24.0447 19.1702C22.5571 19.0124 21.127 18.4986 19.8707 17.6707C18.8125 16.9809 18.5773 16.681 18.5773 16.1112C18.5773 14.9415 19.8119 12.9321 21.9577 10.6228C23.1628 9.30321 24.8677 7.77367 25.0441 7.80366C25.3968 7.89363 28.2481 10.7128 29.3063 12.0324C30.9818 14.1318 31.746 15.8712 31.3639 16.621C31.07 17.1908 29.2181 18.3605 27.866 18.7804C26.6267 19.1497 25.3311 19.2819 24.0447 19.1702ZM17.137 14.8815C16.2551 13.5019 15.8142 12.1524 15.6085 10.2029C15.5497 9.54313 15.5497 9.18324 15.7554 7.86364C16.0685 6.09581 16.8631 4.45363 18.0482 3.12506C18.5185 2.61521 18.5479 2.61521 19.1358 2.79516C19.8413 3.03509 20.5761 3.57493 21.7519 4.62461L22.428 5.25442L22.0459 5.73428C20.341 7.89363 18.5185 10.9227 17.8424 12.8122C17.4603 13.8318 17.3133 14.8515 17.4897 15.3014C17.6073 15.5713 17.5191 15.4514 17.137 14.8815ZM32.5691 15.1215C32.6573 14.7016 32.5397 13.8918 32.2751 13.0821C31.7166 11.3426 29.8648 8.13356 28.1599 5.94421L27.6308 5.25442L28.2187 4.71458C28.7878 4.15572 29.4079 3.65359 30.0705 3.21503C30.4769 2.93581 30.9385 2.75149 31.4227 2.6752C31.5991 2.6752 32.1869 3.30501 32.6867 3.9948C33.4446 5.11908 33.9835 6.38166 34.274 7.71368C34.4602 8.91513 34.4701 10.1382 34.3033 11.3426C34.1484 12.1258 33.9119 12.8899 33.5979 13.6219C33.3248 14.2104 33.0002 14.7726 32.6279 15.3014C32.4809 15.4514 32.4809 15.4514 32.5691 15.1215ZM24.1917 2.34529C23.3432 1.91165 22.4445 1.58919 21.5168 1.38558C21.2816 1.35559 20.8701 1.3256 20.6349 1.3256C20.0764 1.35559 20.1058 1.3256 20.9877 0.905726C21.687 0.557899 22.4282 0.305796 23.1922 0.155951C24.3985 -0.0539978 25.6309 -0.0539978 26.8372 0.155951C27.8355 0.367254 28.7967 0.731255 29.6884 1.23563L29.8942 1.35559L29.4533 1.3256C28.5126 1.29561 27.1899 1.6555 25.779 2.34529C25.3674 2.55523 24.9853 2.73518 24.9853 2.73518C24.9559 2.73518 24.6032 2.55523 24.1917 2.34529Z" fill="#F4F4F4"/>
</g>
<defs>
<clipPath id="clip0_1_1133">
<rect width="50" height="30" fill="white"/>
</clipPath>
</defs>
</svg>
