<svg width="31" height="24" viewBox="0 0 31 24" fill="none" xmlns="http://www.w3.org/2000/svg">
<g clip-path="url(#clip0_1_1043)">
<path d="M29.9845 3.76023C29.9682 3.62881 29.9443 3.49878 29.9132 3.37099C29.8996 3.31183 29.8842 3.25135 29.8674 3.19286C29.6756 2.53268 29.3102 1.95887 28.8225 1.5522C28.3348 1.14554 27.7494 0.926489 27.1488 0.925899H27.3458C27.3458 0.925899 22.2628 0.0365574 15.5004 0C8.73848 0.0365574 3.65487 0.925899 3.65487 0.925899H3.85236C3.25166 0.926537 2.66624 1.14559 2.17849 1.55225C1.69073 1.9589 1.32519 2.53268 1.13329 3.19286C1.11678 3.25122 1.10131 3.31183 1.08664 3.37099C1.05639 3.49894 1.03301 3.62893 1.0166 3.76023C0.694833 6.49118 0.522287 9.24299 0.5 11.9992C0.52231 14.7557 0.694855 17.5078 1.0166 20.239C1.033 20.3701 1.05639 20.4999 1.08664 20.6277C1.10131 20.6888 1.11678 20.7473 1.13329 20.8065C1.325 21.4668 1.6905 22.0407 2.17829 22.4474C2.66608 22.8542 3.2516 23.0731 3.85236 23.0736H3.65452C3.65452 23.0736 8.73814 23.9634 15.5001 24C22.2628 23.9634 27.3455 23.0736 27.3455 23.0736H27.1484C27.7492 23.0732 28.3346 22.8542 28.8224 22.4475C29.3101 22.0408 29.6755 21.4668 29.8671 20.8065C29.8842 20.7467 29.8996 20.6888 29.9129 20.6277C29.944 20.5001 29.9678 20.3702 29.9842 20.239C30.3055 17.5077 30.4778 14.7556 30.5 11.9992C30.4779 9.24303 30.3058 6.49122 29.9845 3.76023ZM19.9436 12.7442L13.8856 17.8473C13.7613 17.9526 13.6113 18.0094 13.4574 18.0095C13.3424 18.0088 13.2292 17.9775 13.1263 17.918C13.0066 17.8467 12.9061 17.7385 12.8359 17.6053C12.7657 17.472 12.7286 17.319 12.7285 17.1628V6.95947C12.7281 6.80338 12.7649 6.65021 12.835 6.51696C12.9051 6.38371 13.0057 6.2756 13.1256 6.20462C13.2454 6.13365 13.3799 6.10259 13.5141 6.11489C13.6482 6.12719 13.7768 6.18237 13.8856 6.27431L19.9428 11.3757C20.0359 11.4543 20.1116 11.5573 20.1638 11.6763C20.216 11.7952 20.2433 11.9269 20.2433 12.0604C20.2433 12.1939 20.216 12.3255 20.1638 12.4444C20.1116 12.5634 20.0359 12.6664 19.9428 12.745L19.9436 12.7442Z" fill="#F4F4F4"/>
</g>
<defs>
<clipPath id="clip0_1_1043">
<rect width="30" height="24" fill="white" transform="translate(0.5)"/>
</clipPath>
</defs>
</svg>
